<mxfile host="Electron" modified="2024-05-02T17:57:07.727Z" agent="Mozilla/5.0 (Windows NT 10.0; Win64; x64) AppleWebKit/537.36 (KHTML, like Gecko) draw.io/24.2.5 Chrome/120.0.6099.109 Electron/28.1.0 Safari/537.36" etag="xfWYcrDWtHECV6bfRWN0" version="24.2.5" type="device" pages="3">
  <diagram id="6a731a19-8d31-9384-78a2-239565b7b9f0" name="UserFlow">
    <mxGraphModel dx="4622" dy="2020" grid="1" gridSize="10" guides="1" tooltips="1" connect="1" arrows="1" fold="1" page="1" pageScale="1" pageWidth="1169" pageHeight="827" background="none" math="0" shadow="0">
      <root>
        <mxCell id="0" />
        <mxCell id="1" parent="0" />
        <mxCell id="ZLwZV-bg8Acif6kUYm4L-58" style="edgeStyle=orthogonalEdgeStyle;rounded=0;orthogonalLoop=1;jettySize=auto;html=1;" parent="1" source="ZLwZV-bg8Acif6kUYm4L-55" target="ZLwZV-bg8Acif6kUYm4L-59" edge="1">
          <mxGeometry relative="1" as="geometry">
            <mxPoint x="450" y="270" as="targetPoint" />
          </mxGeometry>
        </mxCell>
        <mxCell id="ZLwZV-bg8Acif6kUYm4L-55" value="User" style="strokeWidth=2;html=1;shape=mxgraph.flowchart.start_1;whiteSpace=wrap;" parent="1" vertex="1">
          <mxGeometry x="400" y="150" width="100" height="60" as="geometry" />
        </mxCell>
        <mxCell id="ZLwZV-bg8Acif6kUYm4L-60" style="edgeStyle=orthogonalEdgeStyle;rounded=0;orthogonalLoop=1;jettySize=auto;html=1;exitX=0.5;exitY=1;exitDx=0;exitDy=0;exitPerimeter=0;" parent="1" source="ZLwZV-bg8Acif6kUYm4L-59" target="ZLwZV-bg8Acif6kUYm4L-61" edge="1">
          <mxGeometry relative="1" as="geometry">
            <mxPoint x="449.7931034482758" y="400" as="targetPoint" />
          </mxGeometry>
        </mxCell>
        <mxCell id="ZLwZV-bg8Acif6kUYm4L-59" value="Homepage&lt;div&gt;Without&lt;/div&gt;&lt;div&gt;Login&lt;/div&gt;" style="strokeWidth=2;html=1;shape=mxgraph.flowchart.start_2;whiteSpace=wrap;" parent="1" vertex="1">
          <mxGeometry x="400" y="250" width="100" height="100" as="geometry" />
        </mxCell>
        <mxCell id="ZLwZV-bg8Acif6kUYm4L-62" style="edgeStyle=orthogonalEdgeStyle;rounded=0;orthogonalLoop=1;jettySize=auto;html=1;" parent="1" source="ZLwZV-bg8Acif6kUYm4L-61" target="ZLwZV-bg8Acif6kUYm4L-63" edge="1">
          <mxGeometry relative="1" as="geometry">
            <mxPoint x="350" y="440" as="targetPoint" />
          </mxGeometry>
        </mxCell>
        <mxCell id="ZLwZV-bg8Acif6kUYm4L-77" style="edgeStyle=orthogonalEdgeStyle;rounded=0;orthogonalLoop=1;jettySize=auto;html=1;" parent="1" source="ZLwZV-bg8Acif6kUYm4L-61" target="ZLwZV-bg8Acif6kUYm4L-79" edge="1">
          <mxGeometry relative="1" as="geometry">
            <mxPoint x="620" y="440" as="targetPoint" />
          </mxGeometry>
        </mxCell>
        <mxCell id="ZLwZV-bg8Acif6kUYm4L-61" value="Register/Login" style="strokeWidth=2;html=1;shape=mxgraph.flowchart.decision;whiteSpace=wrap;" parent="1" vertex="1">
          <mxGeometry x="400" y="390" width="100" height="100" as="geometry" />
        </mxCell>
        <mxCell id="ZLwZV-bg8Acif6kUYm4L-72" style="edgeStyle=orthogonalEdgeStyle;rounded=0;orthogonalLoop=1;jettySize=auto;html=1;" parent="1" source="ZLwZV-bg8Acif6kUYm4L-63" target="ZLwZV-bg8Acif6kUYm4L-73" edge="1">
          <mxGeometry relative="1" as="geometry">
            <mxPoint x="310" y="530" as="targetPoint" />
          </mxGeometry>
        </mxCell>
        <mxCell id="ZLwZV-bg8Acif6kUYm4L-63" value="Register" style="rounded=1;whiteSpace=wrap;html=1;absoluteArcSize=1;arcSize=14;strokeWidth=2;" parent="1" vertex="1">
          <mxGeometry x="260" y="390" width="100" height="100" as="geometry" />
        </mxCell>
        <mxCell id="ZLwZV-bg8Acif6kUYm4L-74" style="edgeStyle=orthogonalEdgeStyle;rounded=0;orthogonalLoop=1;jettySize=auto;html=1;" parent="1" source="ZLwZV-bg8Acif6kUYm4L-73" target="ZLwZV-bg8Acif6kUYm4L-75" edge="1">
          <mxGeometry relative="1" as="geometry">
            <mxPoint x="310" y="620" as="targetPoint" />
          </mxGeometry>
        </mxCell>
        <mxCell id="ZLwZV-bg8Acif6kUYm4L-73" value="Input&lt;div&gt;Registration&lt;/div&gt;&lt;div&gt;Details&lt;/div&gt;" style="shape=parallelogram;html=1;strokeWidth=2;perimeter=parallelogramPerimeter;whiteSpace=wrap;rounded=1;arcSize=12;size=0.23;" parent="1" vertex="1">
          <mxGeometry x="260" y="520" width="100" height="60" as="geometry" />
        </mxCell>
        <mxCell id="ZLwZV-bg8Acif6kUYm4L-76" style="edgeStyle=orthogonalEdgeStyle;rounded=0;orthogonalLoop=1;jettySize=auto;html=1;" parent="1" edge="1">
          <mxGeometry relative="1" as="geometry">
            <mxPoint x="570" y="439.76" as="targetPoint" />
            <mxPoint x="490" y="659.76" as="sourcePoint" />
          </mxGeometry>
        </mxCell>
        <mxCell id="ZLwZV-bg8Acif6kUYm4L-75" value="Submit&lt;div&gt;&lt;br&gt;&lt;/div&gt;" style="rounded=1;whiteSpace=wrap;html=1;absoluteArcSize=1;arcSize=14;strokeWidth=2;" parent="1" vertex="1">
          <mxGeometry x="260" y="610" width="100" height="100" as="geometry" />
        </mxCell>
        <mxCell id="ZLwZV-bg8Acif6kUYm4L-80" style="edgeStyle=orthogonalEdgeStyle;rounded=0;orthogonalLoop=1;jettySize=auto;html=1;exitX=0.5;exitY=1;exitDx=0;exitDy=0;entryX=0.5;entryY=0;entryDx=0;entryDy=0;" parent="1" source="ZLwZV-bg8Acif6kUYm4L-79" target="ZLwZV-bg8Acif6kUYm4L-81" edge="1">
          <mxGeometry relative="1" as="geometry">
            <mxPoint x="660.1379310344828" y="530" as="targetPoint" />
            <Array as="points">
              <mxPoint x="660" y="550" />
            </Array>
          </mxGeometry>
        </mxCell>
        <mxCell id="ZLwZV-bg8Acif6kUYm4L-79" value="Login" style="rounded=1;whiteSpace=wrap;html=1;absoluteArcSize=1;arcSize=14;strokeWidth=2;" parent="1" vertex="1">
          <mxGeometry x="610" y="390" width="100" height="100" as="geometry" />
        </mxCell>
        <mxCell id="ZLwZV-bg8Acif6kUYm4L-82" style="edgeStyle=orthogonalEdgeStyle;rounded=0;orthogonalLoop=1;jettySize=auto;html=1;exitX=0.5;exitY=1;exitDx=0;exitDy=0;" parent="1" source="ZLwZV-bg8Acif6kUYm4L-81" target="ZLwZV-bg8Acif6kUYm4L-83" edge="1">
          <mxGeometry relative="1" as="geometry">
            <mxPoint x="655.3103448275863" y="640" as="targetPoint" />
          </mxGeometry>
        </mxCell>
        <mxCell id="ZLwZV-bg8Acif6kUYm4L-84" style="edgeStyle=orthogonalEdgeStyle;rounded=0;orthogonalLoop=1;jettySize=auto;html=1;" parent="1" source="ZLwZV-bg8Acif6kUYm4L-81" target="ZLwZV-bg8Acif6kUYm4L-85" edge="1">
          <mxGeometry relative="1" as="geometry">
            <mxPoint x="739.9999999999998" y="570" as="targetPoint" />
          </mxGeometry>
        </mxCell>
        <mxCell id="ZLwZV-bg8Acif6kUYm4L-81" value="Login using&amp;nbsp;&lt;div&gt;Email and Password&lt;/div&gt;" style="shape=parallelogram;html=1;strokeWidth=2;perimeter=parallelogramPerimeter;whiteSpace=wrap;rounded=1;arcSize=12;size=0.23;" parent="1" vertex="1">
          <mxGeometry x="605" y="560" width="110" height="60" as="geometry" />
        </mxCell>
        <mxCell id="ZLwZV-bg8Acif6kUYm4L-106" style="edgeStyle=orthogonalEdgeStyle;rounded=0;orthogonalLoop=1;jettySize=auto;html=1;exitX=0;exitY=0.5;exitDx=0;exitDy=0;exitPerimeter=0;" parent="1" source="ZLwZV-bg8Acif6kUYm4L-83" edge="1">
          <mxGeometry relative="1" as="geometry">
            <mxPoint x="439" y="990" as="targetPoint" />
            <mxPoint x="584.0003448275863" y="920" as="sourcePoint" />
          </mxGeometry>
        </mxCell>
        <mxCell id="ppZpx-Pa-e-hHyihqGD--7" value="yes" style="edgeLabel;html=1;align=center;verticalAlign=middle;resizable=0;points=[];" parent="ZLwZV-bg8Acif6kUYm4L-106" vertex="1" connectable="0">
          <mxGeometry x="-0.111" y="-4" relative="1" as="geometry">
            <mxPoint as="offset" />
          </mxGeometry>
        </mxCell>
        <mxCell id="ppZpx-Pa-e-hHyihqGD--10" style="edgeStyle=orthogonalEdgeStyle;curved=1;rounded=0;orthogonalLoop=1;jettySize=auto;html=1;entryX=0;entryY=1;entryDx=0;entryDy=0;elbow=vertical;exitX=0.267;exitY=0.234;exitDx=0;exitDy=0;exitPerimeter=0;" parent="1" source="ZLwZV-bg8Acif6kUYm4L-83" target="ZLwZV-bg8Acif6kUYm4L-81" edge="1">
          <mxGeometry relative="1" as="geometry">
            <Array as="points">
              <mxPoint x="610" y="903" />
              <mxPoint x="610" y="780" />
              <mxPoint x="605" y="780" />
            </Array>
          </mxGeometry>
        </mxCell>
        <mxCell id="ppZpx-Pa-e-hHyihqGD--11" value="No" style="edgeLabel;html=1;align=center;verticalAlign=middle;resizable=0;points=[];" parent="ppZpx-Pa-e-hHyihqGD--10" vertex="1" connectable="0">
          <mxGeometry x="-0.1741" y="4" relative="1" as="geometry">
            <mxPoint as="offset" />
          </mxGeometry>
        </mxCell>
        <mxCell id="ZLwZV-bg8Acif6kUYm4L-83" value="Login Info&lt;div&gt;Correct&lt;/div&gt;" style="strokeWidth=2;html=1;shape=mxgraph.flowchart.decision;whiteSpace=wrap;" parent="1" vertex="1">
          <mxGeometry x="610.0003448275863" y="880" width="100" height="100" as="geometry" />
        </mxCell>
        <mxCell id="ZLwZV-bg8Acif6kUYm4L-86" style="edgeStyle=orthogonalEdgeStyle;rounded=0;orthogonalLoop=1;jettySize=auto;html=1;" parent="1" source="ZLwZV-bg8Acif6kUYm4L-85" target="ZLwZV-bg8Acif6kUYm4L-87" edge="1">
          <mxGeometry relative="1" as="geometry">
            <mxPoint x="900" y="570" as="targetPoint" />
          </mxGeometry>
        </mxCell>
        <mxCell id="ZLwZV-bg8Acif6kUYm4L-85" value="&lt;div&gt;&lt;span style=&quot;background-color: initial;&quot;&gt;Forgot Password&lt;/span&gt;&lt;/div&gt;&lt;span style=&quot;background-color: initial;&quot;&gt;User Enters&amp;nbsp;&lt;/span&gt;&lt;div&gt;Email Address&lt;/div&gt;" style="rounded=1;whiteSpace=wrap;html=1;absoluteArcSize=1;arcSize=14;strokeWidth=2;" parent="1" vertex="1">
          <mxGeometry x="740" y="530" width="100" height="80" as="geometry" />
        </mxCell>
        <mxCell id="ZLwZV-bg8Acif6kUYm4L-90" style="edgeStyle=orthogonalEdgeStyle;rounded=0;orthogonalLoop=1;jettySize=auto;html=1;" parent="1" source="ZLwZV-bg8Acif6kUYm4L-87" target="ZLwZV-bg8Acif6kUYm4L-92" edge="1">
          <mxGeometry relative="1" as="geometry">
            <mxPoint x="1020" y="570" as="targetPoint" />
          </mxGeometry>
        </mxCell>
        <mxCell id="ZLwZV-bg8Acif6kUYm4L-91" value="No" style="edgeLabel;html=1;align=center;verticalAlign=middle;resizable=0;points=[];" parent="ZLwZV-bg8Acif6kUYm4L-90" vertex="1" connectable="0">
          <mxGeometry x="0.0881" y="3" relative="1" as="geometry">
            <mxPoint as="offset" />
          </mxGeometry>
        </mxCell>
        <mxCell id="ZLwZV-bg8Acif6kUYm4L-98" style="edgeStyle=orthogonalEdgeStyle;rounded=0;orthogonalLoop=1;jettySize=auto;html=1;" parent="1" source="ZLwZV-bg8Acif6kUYm4L-87" edge="1">
          <mxGeometry relative="1" as="geometry">
            <mxPoint x="920" y="700" as="targetPoint" />
          </mxGeometry>
        </mxCell>
        <mxCell id="ZLwZV-bg8Acif6kUYm4L-99" value="Email matches&lt;div&gt;DB&lt;/div&gt;" style="edgeLabel;html=1;align=center;verticalAlign=middle;resizable=0;points=[];" parent="ZLwZV-bg8Acif6kUYm4L-98" vertex="1" connectable="0">
          <mxGeometry x="0.0137" relative="1" as="geometry">
            <mxPoint as="offset" />
          </mxGeometry>
        </mxCell>
        <mxCell id="ZLwZV-bg8Acif6kUYm4L-87" value="Email&lt;div&gt;Matches DB&lt;/div&gt;&lt;div&gt;Records&lt;/div&gt;" style="strokeWidth=2;html=1;shape=mxgraph.flowchart.decision;whiteSpace=wrap;" parent="1" vertex="1">
          <mxGeometry x="870" y="520" width="100" height="100" as="geometry" />
        </mxCell>
        <mxCell id="ZLwZV-bg8Acif6kUYm4L-93" style="edgeStyle=orthogonalEdgeStyle;rounded=0;orthogonalLoop=1;jettySize=auto;html=1;" parent="1" source="ZLwZV-bg8Acif6kUYm4L-92" edge="1">
          <mxGeometry relative="1" as="geometry">
            <mxPoint x="1160" y="570" as="targetPoint" />
          </mxGeometry>
        </mxCell>
        <mxCell id="ZLwZV-bg8Acif6kUYm4L-92" value="Re Enter Email address" style="rounded=1;whiteSpace=wrap;html=1;absoluteArcSize=1;arcSize=14;strokeWidth=2;" parent="1" vertex="1">
          <mxGeometry x="1030" y="520" width="100" height="100" as="geometry" />
        </mxCell>
        <mxCell id="ZLwZV-bg8Acif6kUYm4L-95" style="edgeStyle=orthogonalEdgeStyle;rounded=0;orthogonalLoop=1;jettySize=auto;html=1;" parent="1" source="ZLwZV-bg8Acif6kUYm4L-94" target="ZLwZV-bg8Acif6kUYm4L-97" edge="1">
          <mxGeometry relative="1" as="geometry">
            <mxPoint x="1340" y="570" as="targetPoint" />
          </mxGeometry>
        </mxCell>
        <mxCell id="ZLwZV-bg8Acif6kUYm4L-96" value="Email&lt;div&gt;Doesn&#39;t&lt;/div&gt;&lt;div&gt;Match&lt;/div&gt;" style="edgeLabel;html=1;align=center;verticalAlign=middle;resizable=0;points=[];" parent="ZLwZV-bg8Acif6kUYm4L-95" vertex="1" connectable="0">
          <mxGeometry x="0.0831" y="2" relative="1" as="geometry">
            <mxPoint as="offset" />
          </mxGeometry>
        </mxCell>
        <mxCell id="ZLwZV-bg8Acif6kUYm4L-94" value="Email&lt;div&gt;Matches DB&lt;/div&gt;&lt;div&gt;Records&lt;/div&gt;" style="strokeWidth=2;html=1;shape=mxgraph.flowchart.decision;whiteSpace=wrap;" parent="1" vertex="1">
          <mxGeometry x="1160" y="520" width="100" height="100" as="geometry" />
        </mxCell>
        <mxCell id="ZLwZV-bg8Acif6kUYm4L-97" value="Registration&lt;div&gt;Process&lt;/div&gt;" style="rounded=1;whiteSpace=wrap;html=1;absoluteArcSize=1;arcSize=14;strokeWidth=2;" parent="1" vertex="1">
          <mxGeometry x="1330" y="520" width="100" height="100" as="geometry" />
        </mxCell>
        <mxCell id="ZLwZV-bg8Acif6kUYm4L-101" style="edgeStyle=orthogonalEdgeStyle;rounded=0;orthogonalLoop=1;jettySize=auto;html=1;" parent="1" source="ZLwZV-bg8Acif6kUYm4L-100" target="ZLwZV-bg8Acif6kUYm4L-102" edge="1">
          <mxGeometry relative="1" as="geometry">
            <mxPoint x="920" y="830" as="targetPoint" />
          </mxGeometry>
        </mxCell>
        <mxCell id="ZLwZV-bg8Acif6kUYm4L-100" value="Reset Email Sent:&lt;div&gt;user clickck link to sent&lt;/div&gt;" style="rounded=1;whiteSpace=wrap;html=1;absoluteArcSize=1;arcSize=14;strokeWidth=2;" parent="1" vertex="1">
          <mxGeometry x="870" y="700" width="100" height="100" as="geometry" />
        </mxCell>
        <mxCell id="ZLwZV-bg8Acif6kUYm4L-105" style="edgeStyle=orthogonalEdgeStyle;rounded=0;orthogonalLoop=1;jettySize=auto;html=1;entryX=0.75;entryY=1;entryDx=0;entryDy=0;" parent="1" source="ZLwZV-bg8Acif6kUYm4L-102" target="ZLwZV-bg8Acif6kUYm4L-81" edge="1">
          <mxGeometry relative="1" as="geometry" />
        </mxCell>
        <mxCell id="ZLwZV-bg8Acif6kUYm4L-102" value="Enter new Password&amp;nbsp;&lt;div&gt;and&lt;/div&gt;&lt;div&gt;Confirmation&lt;/div&gt;" style="rounded=1;whiteSpace=wrap;html=1;absoluteArcSize=1;arcSize=14;strokeWidth=2;" parent="1" vertex="1">
          <mxGeometry x="870" y="830" width="100" height="70" as="geometry" />
        </mxCell>
        <mxCell id="ZLwZV-bg8Acif6kUYm4L-104" style="edgeStyle=orthogonalEdgeStyle;rounded=0;orthogonalLoop=1;jettySize=auto;html=1;entryX=0.978;entryY=0.678;entryDx=0;entryDy=0;entryPerimeter=0;" parent="1" edge="1">
          <mxGeometry relative="1" as="geometry">
            <mxPoint x="1212.2344827586207" y="620" as="sourcePoint" />
            <mxPoint x="970" y="767.8" as="targetPoint" />
            <Array as="points">
              <mxPoint x="1212.2" y="768" />
            </Array>
          </mxGeometry>
        </mxCell>
        <mxCell id="ZLwZV-bg8Acif6kUYm4L-108" style="edgeStyle=orthogonalEdgeStyle;rounded=0;orthogonalLoop=1;jettySize=auto;html=1;" parent="1" source="ZLwZV-bg8Acif6kUYm4L-107" target="ZLwZV-bg8Acif6kUYm4L-109" edge="1">
          <mxGeometry relative="1" as="geometry">
            <mxPoint x="570" y="1040" as="targetPoint" />
          </mxGeometry>
        </mxCell>
        <mxCell id="ZLwZV-bg8Acif6kUYm4L-113" style="edgeStyle=orthogonalEdgeStyle;rounded=0;orthogonalLoop=1;jettySize=auto;html=1;" parent="1" source="ZLwZV-bg8Acif6kUYm4L-107" edge="1">
          <mxGeometry relative="1" as="geometry">
            <mxPoint x="440" y="1160" as="targetPoint" />
          </mxGeometry>
        </mxCell>
        <mxCell id="ppZpx-Pa-e-hHyihqGD--1" style="edgeStyle=orthogonalEdgeStyle;rounded=0;orthogonalLoop=1;jettySize=auto;html=1;exitX=0.855;exitY=0.855;exitDx=0;exitDy=0;exitPerimeter=0;entryX=0.25;entryY=0;entryDx=0;entryDy=0;" parent="1" source="ZLwZV-bg8Acif6kUYm4L-107" target="ZLwZV-bg8Acif6kUYm4L-152" edge="1">
          <mxGeometry relative="1" as="geometry">
            <Array as="points">
              <mxPoint x="476" y="1120" />
              <mxPoint x="640" y="1120" />
            </Array>
          </mxGeometry>
        </mxCell>
        <mxCell id="ppZpx-Pa-e-hHyihqGD--2" style="edgeStyle=orthogonalEdgeStyle;rounded=0;orthogonalLoop=1;jettySize=auto;html=1;exitX=0;exitY=0.5;exitDx=0;exitDy=0;exitPerimeter=0;" parent="1" source="ZLwZV-bg8Acif6kUYm4L-107" target="ppZpx-Pa-e-hHyihqGD--3" edge="1">
          <mxGeometry relative="1" as="geometry">
            <mxPoint x="10.000000000000227" y="1330" as="targetPoint" />
          </mxGeometry>
        </mxCell>
        <mxCell id="ZLwZV-bg8Acif6kUYm4L-107" value="Homepage&lt;div&gt;With&amp;nbsp;&lt;/div&gt;&lt;div&gt;Login&lt;/div&gt;" style="strokeWidth=2;html=1;shape=mxgraph.flowchart.start_2;whiteSpace=wrap;" parent="1" vertex="1">
          <mxGeometry x="390" y="990" width="100" height="100" as="geometry" />
        </mxCell>
        <mxCell id="ZLwZV-bg8Acif6kUYm4L-149" style="edgeStyle=elbowEdgeStyle;rounded=0;orthogonalLoop=1;jettySize=auto;elbow=vertical;html=1;" parent="1" source="ZLwZV-bg8Acif6kUYm4L-109" edge="1">
          <mxGeometry relative="1" as="geometry">
            <mxPoint x="665" y="1500" as="targetPoint" />
          </mxGeometry>
        </mxCell>
        <mxCell id="ppZpx-Pa-e-hHyihqGD--12" style="edgeStyle=orthogonalEdgeStyle;curved=1;rounded=0;orthogonalLoop=1;jettySize=auto;html=1;exitX=1;exitY=0.25;exitDx=0;exitDy=0;elbow=vertical;" parent="1" source="ZLwZV-bg8Acif6kUYm4L-109" target="ppZpx-Pa-e-hHyihqGD--13" edge="1">
          <mxGeometry relative="1" as="geometry">
            <mxPoint x="900" y="1015.4285714285716" as="targetPoint" />
          </mxGeometry>
        </mxCell>
        <mxCell id="ppZpx-Pa-e-hHyihqGD--20" style="edgeStyle=none;rounded=0;orthogonalLoop=1;jettySize=auto;html=1;elbow=vertical;entryX=0.95;entryY=0.742;entryDx=0;entryDy=0;entryPerimeter=0;" parent="1" target="ZLwZV-bg8Acif6kUYm4L-107" edge="1">
          <mxGeometry relative="1" as="geometry">
            <mxPoint x="480.9000000000001" y="1064.6" as="targetPoint" />
            <mxPoint x="620" y="1080" as="sourcePoint" />
          </mxGeometry>
        </mxCell>
        <mxCell id="ppZpx-Pa-e-hHyihqGD--30" style="edgeStyle=orthogonalEdgeStyle;rounded=0;orthogonalLoop=1;jettySize=auto;html=1;elbow=vertical;" parent="1" source="ZLwZV-bg8Acif6kUYm4L-109" target="ppZpx-Pa-e-hHyihqGD--31" edge="1">
          <mxGeometry relative="1" as="geometry">
            <mxPoint x="900" y="1120" as="targetPoint" />
          </mxGeometry>
        </mxCell>
        <mxCell id="ppZpx-Pa-e-hHyihqGD--49" style="edgeStyle=orthogonalEdgeStyle;rounded=0;orthogonalLoop=1;jettySize=auto;html=1;exitX=1;exitY=0.75;exitDx=0;exitDy=0;elbow=vertical;" parent="1" source="ZLwZV-bg8Acif6kUYm4L-109" target="ppZpx-Pa-e-hHyihqGD--50" edge="1">
          <mxGeometry relative="1" as="geometry">
            <mxPoint x="780" y="1120" as="targetPoint" />
          </mxGeometry>
        </mxCell>
        <mxCell id="ZLwZV-bg8Acif6kUYm4L-109" value="View&amp;nbsp;&lt;div&gt;Account&lt;/div&gt;&lt;div&gt;Details&lt;/div&gt;" style="rounded=1;whiteSpace=wrap;html=1;absoluteArcSize=1;arcSize=14;strokeWidth=2;" parent="1" vertex="1">
          <mxGeometry x="615" y="990" width="100" height="100" as="geometry" />
        </mxCell>
        <mxCell id="ZLwZV-bg8Acif6kUYm4L-115" style="edgeStyle=orthogonalEdgeStyle;rounded=0;orthogonalLoop=1;jettySize=auto;html=1;" parent="1" source="ZLwZV-bg8Acif6kUYm4L-114" edge="1">
          <mxGeometry relative="1" as="geometry">
            <mxPoint x="440" y="1280" as="targetPoint" />
          </mxGeometry>
        </mxCell>
        <mxCell id="ZLwZV-bg8Acif6kUYm4L-114" value="Search Services&lt;div&gt;&lt;br&gt;&lt;/div&gt;" style="rounded=1;whiteSpace=wrap;html=1;absoluteArcSize=1;arcSize=14;strokeWidth=2;" parent="1" vertex="1">
          <mxGeometry x="390" y="1160" width="100" height="70" as="geometry" />
        </mxCell>
        <mxCell id="ZLwZV-bg8Acif6kUYm4L-126" style="edgeStyle=elbowEdgeStyle;rounded=0;orthogonalLoop=1;jettySize=auto;elbow=vertical;html=1;" parent="1" source="ZLwZV-bg8Acif6kUYm4L-116" target="ZLwZV-bg8Acif6kUYm4L-127" edge="1">
          <mxGeometry relative="1" as="geometry">
            <mxPoint x="430" y="1380" as="targetPoint" />
          </mxGeometry>
        </mxCell>
        <mxCell id="ZLwZV-bg8Acif6kUYm4L-116" value="Book A Service&lt;div&gt;Enter Booking&lt;/div&gt;&lt;div&gt;Date and Time&lt;/div&gt;" style="shape=parallelogram;html=1;strokeWidth=2;perimeter=parallelogramPerimeter;whiteSpace=wrap;rounded=1;arcSize=12;size=0.23;" parent="1" vertex="1">
          <mxGeometry x="360" y="1280" width="140" height="60" as="geometry" />
        </mxCell>
        <mxCell id="ZLwZV-bg8Acif6kUYm4L-129" style="edgeStyle=elbowEdgeStyle;rounded=0;orthogonalLoop=1;jettySize=auto;elbow=vertical;html=1;" parent="1" source="ZLwZV-bg8Acif6kUYm4L-122" target="ZLwZV-bg8Acif6kUYm4L-130" edge="1">
          <mxGeometry relative="1" as="geometry">
            <mxPoint x="290" y="1620" as="targetPoint" />
          </mxGeometry>
        </mxCell>
        <mxCell id="ZLwZV-bg8Acif6kUYm4L-122" value="Enter Payment&lt;div&gt;Details&lt;/div&gt;" style="shape=parallelogram;html=1;strokeWidth=2;perimeter=parallelogramPerimeter;whiteSpace=wrap;rounded=1;arcSize=12;size=0.23;" parent="1" vertex="1">
          <mxGeometry x="230" y="1520" width="120" height="60" as="geometry" />
        </mxCell>
        <mxCell id="ZLwZV-bg8Acif6kUYm4L-132" style="edgeStyle=elbowEdgeStyle;rounded=0;orthogonalLoop=1;jettySize=auto;elbow=vertical;html=1;" parent="1" source="ZLwZV-bg8Acif6kUYm4L-127" target="ZLwZV-bg8Acif6kUYm4L-122" edge="1">
          <mxGeometry relative="1" as="geometry" />
        </mxCell>
        <mxCell id="ZLwZV-bg8Acif6kUYm4L-134" value="Pay Now" style="edgeLabel;html=1;align=center;verticalAlign=middle;resizable=0;points=[];" parent="ZLwZV-bg8Acif6kUYm4L-132" vertex="1" connectable="0">
          <mxGeometry x="-0.0831" relative="1" as="geometry">
            <mxPoint as="offset" />
          </mxGeometry>
        </mxCell>
        <mxCell id="ZLwZV-bg8Acif6kUYm4L-127" value="Pay Now or&amp;nbsp;&lt;div&gt;Add To Cart&lt;/div&gt;" style="strokeWidth=2;html=1;shape=mxgraph.flowchart.decision;whiteSpace=wrap;" parent="1" vertex="1">
          <mxGeometry x="380" y="1380" width="100" height="100" as="geometry" />
        </mxCell>
        <mxCell id="ZLwZV-bg8Acif6kUYm4L-145" style="edgeStyle=elbowEdgeStyle;rounded=0;orthogonalLoop=1;jettySize=auto;elbow=vertical;html=1;" parent="1" source="ZLwZV-bg8Acif6kUYm4L-130" target="ZLwZV-bg8Acif6kUYm4L-146" edge="1">
          <mxGeometry relative="1" as="geometry">
            <mxPoint x="440" y="1800" as="targetPoint" />
          </mxGeometry>
        </mxCell>
        <mxCell id="ZLwZV-bg8Acif6kUYm4L-147" value="Pay" style="edgeLabel;html=1;align=center;verticalAlign=middle;resizable=0;points=[];" parent="ZLwZV-bg8Acif6kUYm4L-145" vertex="1" connectable="0">
          <mxGeometry x="-0.2403" y="-1" relative="1" as="geometry">
            <mxPoint as="offset" />
          </mxGeometry>
        </mxCell>
        <mxCell id="ZLwZV-bg8Acif6kUYm4L-157" style="edgeStyle=elbowEdgeStyle;rounded=0;orthogonalLoop=1;jettySize=auto;elbow=vertical;html=1;" parent="1" source="ZLwZV-bg8Acif6kUYm4L-130" edge="1">
          <mxGeometry relative="1" as="geometry">
            <mxPoint x="110" y="1680" as="targetPoint" />
          </mxGeometry>
        </mxCell>
        <mxCell id="ZLwZV-bg8Acif6kUYm4L-130" value="Pay Or Cancel" style="strokeWidth=2;html=1;shape=mxgraph.flowchart.decision;whiteSpace=wrap;" parent="1" vertex="1">
          <mxGeometry x="240" y="1630" width="100" height="100" as="geometry" />
        </mxCell>
        <mxCell id="ZLwZV-bg8Acif6kUYm4L-137" value="" style="edgeStyle=segmentEdgeStyle;endArrow=classic;html=1;curved=0;rounded=0;endSize=8;startSize=8;elbow=vertical;" parent="1" edge="1">
          <mxGeometry width="50" height="50" relative="1" as="geometry">
            <mxPoint x="480" y="1430" as="sourcePoint" />
            <mxPoint x="560" y="1210" as="targetPoint" />
          </mxGeometry>
        </mxCell>
        <mxCell id="ZLwZV-bg8Acif6kUYm4L-144" value="Add&lt;div&gt;To Cart&lt;/div&gt;" style="edgeLabel;html=1;align=center;verticalAlign=middle;resizable=0;points=[];" parent="ZLwZV-bg8Acif6kUYm4L-137" vertex="1" connectable="0">
          <mxGeometry x="-0.6633" y="2" relative="1" as="geometry">
            <mxPoint as="offset" />
          </mxGeometry>
        </mxCell>
        <mxCell id="ZLwZV-bg8Acif6kUYm4L-139" value="" style="endArrow=classic;html=1;rounded=0;elbow=vertical;exitX=1;exitY=0.5;exitDx=0;exitDy=0;" parent="1" source="ZLwZV-bg8Acif6kUYm4L-75" edge="1">
          <mxGeometry relative="1" as="geometry">
            <mxPoint x="440" y="659.66" as="sourcePoint" />
            <mxPoint x="540" y="659.66" as="targetPoint" />
          </mxGeometry>
        </mxCell>
        <mxCell id="ZLwZV-bg8Acif6kUYm4L-140" value="Email&lt;div&gt;Verification&lt;/div&gt;" style="shape=message;html=1;outlineConnect=0;" parent="ZLwZV-bg8Acif6kUYm4L-139" vertex="1">
          <mxGeometry width="20" height="14" relative="1" as="geometry">
            <mxPoint x="-10" y="-7" as="offset" />
          </mxGeometry>
        </mxCell>
        <mxCell id="ZLwZV-bg8Acif6kUYm4L-143" value="" style="endArrow=classic;html=1;rounded=0;elbow=vertical;entryX=1;entryY=0.5;entryDx=0;entryDy=0;" parent="1" edge="1">
          <mxGeometry width="50" height="50" relative="1" as="geometry">
            <mxPoint x="560" y="1210" as="sourcePoint" />
            <mxPoint x="490.0000000000001" y="1210" as="targetPoint" />
          </mxGeometry>
        </mxCell>
        <mxCell id="ZLwZV-bg8Acif6kUYm4L-146" value="End" style="ellipse;whiteSpace=wrap;html=1;" parent="1" vertex="1">
          <mxGeometry x="380" y="1770" width="120" height="80" as="geometry" />
        </mxCell>
        <mxCell id="ZLwZV-bg8Acif6kUYm4L-153" style="edgeStyle=elbowEdgeStyle;rounded=0;orthogonalLoop=1;jettySize=auto;elbow=vertical;html=1;" parent="1" source="ZLwZV-bg8Acif6kUYm4L-152" target="ZLwZV-bg8Acif6kUYm4L-122" edge="1">
          <mxGeometry relative="1" as="geometry" />
        </mxCell>
        <mxCell id="ZLwZV-bg8Acif6kUYm4L-154" value="Pay" style="edgeLabel;html=1;align=center;verticalAlign=middle;resizable=0;points=[];" parent="ZLwZV-bg8Acif6kUYm4L-153" vertex="1" connectable="0">
          <mxGeometry x="0.3978" y="-2" relative="1" as="geometry">
            <mxPoint as="offset" />
          </mxGeometry>
        </mxCell>
        <mxCell id="ZLwZV-bg8Acif6kUYm4L-152" value="Cart" style="rounded=1;whiteSpace=wrap;html=1;absoluteArcSize=1;arcSize=14;strokeWidth=2;" parent="1" vertex="1">
          <mxGeometry x="615" y="1500" width="100" height="100" as="geometry" />
        </mxCell>
        <mxCell id="ZLwZV-bg8Acif6kUYm4L-155" style="edgeStyle=elbowEdgeStyle;rounded=0;orthogonalLoop=1;jettySize=auto;elbow=vertical;html=1;entryX=0.667;entryY=0;entryDx=0;entryDy=0;entryPerimeter=0;" parent="1" source="ZLwZV-bg8Acif6kUYm4L-152" target="ZLwZV-bg8Acif6kUYm4L-146" edge="1">
          <mxGeometry relative="1" as="geometry" />
        </mxCell>
        <mxCell id="ZLwZV-bg8Acif6kUYm4L-156" value="Remove Item From Cart" style="edgeLabel;html=1;align=center;verticalAlign=middle;resizable=0;points=[];" parent="ZLwZV-bg8Acif6kUYm4L-155" vertex="1" connectable="0">
          <mxGeometry x="0.1896" y="-3" relative="1" as="geometry">
            <mxPoint as="offset" />
          </mxGeometry>
        </mxCell>
        <mxCell id="ZLwZV-bg8Acif6kUYm4L-158" value="" style="endArrow=classic;html=1;rounded=0;elbow=vertical;" parent="1" edge="1">
          <mxGeometry width="50" height="50" relative="1" as="geometry">
            <mxPoint x="110" y="1680" as="sourcePoint" />
            <mxPoint x="110" y="1200" as="targetPoint" />
            <Array as="points">
              <mxPoint x="110" y="1660" />
            </Array>
          </mxGeometry>
        </mxCell>
        <mxCell id="ZLwZV-bg8Acif6kUYm4L-160" value="Cancel&lt;div&gt;Payment&lt;/div&gt;" style="edgeLabel;html=1;align=center;verticalAlign=middle;resizable=0;points=[];" parent="ZLwZV-bg8Acif6kUYm4L-158" vertex="1" connectable="0">
          <mxGeometry x="-0.7207" y="-1" relative="1" as="geometry">
            <mxPoint as="offset" />
          </mxGeometry>
        </mxCell>
        <mxCell id="ZLwZV-bg8Acif6kUYm4L-159" value="" style="endArrow=classic;html=1;rounded=0;elbow=vertical;entryX=-0.018;entryY=0.567;entryDx=0;entryDy=0;entryPerimeter=0;" parent="1" target="ZLwZV-bg8Acif6kUYm4L-114" edge="1">
          <mxGeometry width="50" height="50" relative="1" as="geometry">
            <mxPoint x="110" y="1201" as="sourcePoint" />
            <mxPoint x="190" y="1200" as="targetPoint" />
            <Array as="points">
              <mxPoint x="120" y="1200" />
            </Array>
          </mxGeometry>
        </mxCell>
        <mxCell id="ppZpx-Pa-e-hHyihqGD--3" value="Logout" style="rounded=0;whiteSpace=wrap;html=1;" parent="1" vertex="1">
          <mxGeometry x="-49.99999999999977" y="1300" width="120" height="60" as="geometry" />
        </mxCell>
        <mxCell id="ppZpx-Pa-e-hHyihqGD--4" style="edgeStyle=orthogonalEdgeStyle;rounded=0;orthogonalLoop=1;jettySize=auto;html=1;entryX=0;entryY=0.721;entryDx=0;entryDy=0;entryPerimeter=0;" parent="1" source="ppZpx-Pa-e-hHyihqGD--3" target="ZLwZV-bg8Acif6kUYm4L-146" edge="1">
          <mxGeometry relative="1" as="geometry">
            <Array as="points">
              <mxPoint x="10" y="1828" />
            </Array>
          </mxGeometry>
        </mxCell>
        <mxCell id="ppZpx-Pa-e-hHyihqGD--14" style="edgeStyle=orthogonalEdgeStyle;curved=1;rounded=0;orthogonalLoop=1;jettySize=auto;html=1;elbow=vertical;" parent="1" source="ppZpx-Pa-e-hHyihqGD--13" target="ppZpx-Pa-e-hHyihqGD--15" edge="1">
          <mxGeometry relative="1" as="geometry">
            <mxPoint x="1020" y="1079.9999999999998" as="targetPoint" />
          </mxGeometry>
        </mxCell>
        <mxCell id="ppZpx-Pa-e-hHyihqGD--13" value="User&lt;div&gt;Details&lt;/div&gt;&lt;div&gt;&lt;br&gt;&lt;/div&gt;" style="whiteSpace=wrap;html=1;aspect=fixed;" parent="1" vertex="1">
          <mxGeometry x="990" y="975.4285714285716" width="80" height="80" as="geometry" />
        </mxCell>
        <mxCell id="ppZpx-Pa-e-hHyihqGD--16" style="edgeStyle=orthogonalEdgeStyle;rounded=0;orthogonalLoop=1;jettySize=auto;html=1;entryX=1;entryY=0.5;entryDx=0;entryDy=0;elbow=vertical;" parent="1" source="ppZpx-Pa-e-hHyihqGD--15" target="ZLwZV-bg8Acif6kUYm4L-146" edge="1">
          <mxGeometry relative="1" as="geometry">
            <Array as="points">
              <mxPoint x="1110" y="1100" />
              <mxPoint x="1110" y="1810" />
            </Array>
          </mxGeometry>
        </mxCell>
        <mxCell id="ppZpx-Pa-e-hHyihqGD--17" value="Save&lt;div&gt;&lt;br&gt;&lt;/div&gt;" style="edgeLabel;html=1;align=center;verticalAlign=middle;resizable=0;points=[];" parent="ppZpx-Pa-e-hHyihqGD--16" vertex="1" connectable="0">
          <mxGeometry x="-0.2411" y="2" relative="1" as="geometry">
            <mxPoint y="-1" as="offset" />
          </mxGeometry>
        </mxCell>
        <mxCell id="ppZpx-Pa-e-hHyihqGD--15" value="Edit User&lt;div&gt;Details&lt;/div&gt;" style="shape=parallelogram;perimeter=parallelogramPerimeter;whiteSpace=wrap;html=1;fixedSize=1;" parent="1" vertex="1">
          <mxGeometry x="970" y="1069.9999999999998" width="120" height="60" as="geometry" />
        </mxCell>
        <mxCell id="ppZpx-Pa-e-hHyihqGD--26" value="" style="group" parent="1" vertex="1" connectable="0">
          <mxGeometry x="970" y="930" width="190" height="80" as="geometry" />
        </mxCell>
        <mxCell id="ppZpx-Pa-e-hHyihqGD--24" style="edgeStyle=none;rounded=0;orthogonalLoop=1;jettySize=auto;html=1;exitX=1;exitY=0;exitDx=0;exitDy=0;elbow=vertical;endArrow=none;endFill=0;" parent="ppZpx-Pa-e-hHyihqGD--26" source="ZLwZV-bg8Acif6kUYm4L-109" edge="1">
          <mxGeometry relative="1" as="geometry">
            <mxPoint as="targetPoint" />
          </mxGeometry>
        </mxCell>
        <mxCell id="ppZpx-Pa-e-hHyihqGD--25" value="" style="endArrow=classic;html=1;rounded=0;elbow=vertical;" parent="ppZpx-Pa-e-hHyihqGD--26" edge="1">
          <mxGeometry width="50" height="50" relative="1" as="geometry">
            <mxPoint as="sourcePoint" />
            <mxPoint x="190" y="80" as="targetPoint" />
          </mxGeometry>
        </mxCell>
        <mxCell id="ppZpx-Pa-e-hHyihqGD--27" value="Logout&lt;div&gt;&lt;br&gt;&lt;/div&gt;" style="whiteSpace=wrap;html=1;aspect=fixed;" parent="1" vertex="1">
          <mxGeometry x="1160" y="990" width="80" height="80" as="geometry" />
        </mxCell>
        <mxCell id="ppZpx-Pa-e-hHyihqGD--29" style="edgeStyle=orthogonalEdgeStyle;rounded=0;orthogonalLoop=1;jettySize=auto;html=1;entryX=0.986;entryY=0.394;entryDx=0;entryDy=0;entryPerimeter=0;elbow=vertical;" parent="1" source="ppZpx-Pa-e-hHyihqGD--27" target="ZLwZV-bg8Acif6kUYm4L-146" edge="1">
          <mxGeometry relative="1" as="geometry">
            <Array as="points">
              <mxPoint x="1190" y="1800" />
              <mxPoint x="498" y="1800" />
            </Array>
          </mxGeometry>
        </mxCell>
        <mxCell id="ppZpx-Pa-e-hHyihqGD--32" style="edgeStyle=orthogonalEdgeStyle;rounded=0;orthogonalLoop=1;jettySize=auto;html=1;elbow=vertical;" parent="1" source="ppZpx-Pa-e-hHyihqGD--31" target="ppZpx-Pa-e-hHyihqGD--33" edge="1">
          <mxGeometry relative="1" as="geometry">
            <mxPoint x="910" y="1240" as="targetPoint" />
          </mxGeometry>
        </mxCell>
        <mxCell id="ppZpx-Pa-e-hHyihqGD--31" value="My Bookings" style="whiteSpace=wrap;html=1;aspect=fixed;" parent="1" vertex="1">
          <mxGeometry x="870" y="1110" width="80" height="80" as="geometry" />
        </mxCell>
        <mxCell id="ppZpx-Pa-e-hHyihqGD--34" style="edgeStyle=orthogonalEdgeStyle;rounded=0;orthogonalLoop=1;jettySize=auto;html=1;elbow=vertical;entryX=0.5;entryY=0;entryDx=0;entryDy=0;" parent="1" source="ppZpx-Pa-e-hHyihqGD--33" target="ppZpx-Pa-e-hHyihqGD--35" edge="1">
          <mxGeometry relative="1" as="geometry">
            <mxPoint x="1050" y="1370" as="targetPoint" />
          </mxGeometry>
        </mxCell>
        <mxCell id="ppZpx-Pa-e-hHyihqGD--40" style="edgeStyle=orthogonalEdgeStyle;rounded=0;orthogonalLoop=1;jettySize=auto;html=1;elbow=vertical;" parent="1" source="ppZpx-Pa-e-hHyihqGD--33" target="ppZpx-Pa-e-hHyihqGD--41" edge="1">
          <mxGeometry relative="1" as="geometry">
            <mxPoint x="840" y="1370" as="targetPoint" />
          </mxGeometry>
        </mxCell>
        <mxCell id="ppZpx-Pa-e-hHyihqGD--33" value="Current Bookings&lt;div&gt;or Past Bookngs&lt;/div&gt;" style="rhombus;whiteSpace=wrap;html=1;" parent="1" vertex="1">
          <mxGeometry x="870" y="1240" width="130" height="100" as="geometry" />
        </mxCell>
        <mxCell id="ppZpx-Pa-e-hHyihqGD--36" style="edgeStyle=orthogonalEdgeStyle;rounded=0;orthogonalLoop=1;jettySize=auto;html=1;elbow=vertical;" parent="1" source="ppZpx-Pa-e-hHyihqGD--35" target="ppZpx-Pa-e-hHyihqGD--37" edge="1">
          <mxGeometry relative="1" as="geometry">
            <mxPoint x="1050" y="1510" as="targetPoint" />
          </mxGeometry>
        </mxCell>
        <mxCell id="ppZpx-Pa-e-hHyihqGD--39" value="Raise a support" style="edgeLabel;html=1;align=center;verticalAlign=middle;resizable=0;points=[];" parent="ppZpx-Pa-e-hHyihqGD--36" vertex="1" connectable="0">
          <mxGeometry x="-0.2364" y="-1" relative="1" as="geometry">
            <mxPoint y="-1" as="offset" />
          </mxGeometry>
        </mxCell>
        <mxCell id="ppZpx-Pa-e-hHyihqGD--35" value="Past&amp;nbsp;&lt;div&gt;bookings&lt;/div&gt;" style="whiteSpace=wrap;html=1;aspect=fixed;" parent="1" vertex="1">
          <mxGeometry x="1010" y="1310" width="80" height="80" as="geometry" />
        </mxCell>
        <mxCell id="ppZpx-Pa-e-hHyihqGD--38" style="edgeStyle=orthogonalEdgeStyle;rounded=0;orthogonalLoop=1;jettySize=auto;html=1;entryX=1;entryY=0;entryDx=0;entryDy=0;elbow=vertical;" parent="1" source="ppZpx-Pa-e-hHyihqGD--37" target="ZLwZV-bg8Acif6kUYm4L-146" edge="1">
          <mxGeometry relative="1" as="geometry">
            <Array as="points">
              <mxPoint x="1050" y="1780" />
              <mxPoint x="482" y="1780" />
            </Array>
          </mxGeometry>
        </mxCell>
        <mxCell id="ppZpx-Pa-e-hHyihqGD--37" value="Support" style="whiteSpace=wrap;html=1;aspect=fixed;" parent="1" vertex="1">
          <mxGeometry x="1010" y="1500" width="80" height="80" as="geometry" />
        </mxCell>
        <mxCell id="ppZpx-Pa-e-hHyihqGD--42" style="edgeStyle=orthogonalEdgeStyle;rounded=0;orthogonalLoop=1;jettySize=auto;html=1;exitX=1;exitY=0.375;exitDx=0;exitDy=0;entryX=0;entryY=0.25;entryDx=0;entryDy=0;elbow=vertical;exitPerimeter=0;" parent="1" source="ppZpx-Pa-e-hHyihqGD--41" target="ppZpx-Pa-e-hHyihqGD--37" edge="1">
          <mxGeometry relative="1" as="geometry" />
        </mxCell>
        <mxCell id="ppZpx-Pa-e-hHyihqGD--43" value="Raise a support" style="edgeLabel;html=1;align=center;verticalAlign=middle;resizable=0;points=[];" parent="ppZpx-Pa-e-hHyihqGD--42" vertex="1" connectable="0">
          <mxGeometry x="0.0958" y="6" relative="1" as="geometry">
            <mxPoint as="offset" />
          </mxGeometry>
        </mxCell>
        <mxCell id="ppZpx-Pa-e-hHyihqGD--41" value="Current&lt;div&gt;Bookings&lt;/div&gt;" style="whiteSpace=wrap;html=1;aspect=fixed;" parent="1" vertex="1">
          <mxGeometry x="770" y="1360" width="80" height="80" as="geometry" />
        </mxCell>
        <mxCell id="ppZpx-Pa-e-hHyihqGD--44" style="edgeStyle=orthogonalEdgeStyle;rounded=0;orthogonalLoop=1;jettySize=auto;html=1;exitX=0.5;exitY=1;exitDx=0;exitDy=0;entryX=0.783;entryY=0.003;entryDx=0;entryDy=0;entryPerimeter=0;elbow=vertical;" parent="1" source="ppZpx-Pa-e-hHyihqGD--41" target="ZLwZV-bg8Acif6kUYm4L-146" edge="1">
          <mxGeometry relative="1" as="geometry">
            <Array as="points">
              <mxPoint x="810" y="1750" />
              <mxPoint x="474" y="1750" />
            </Array>
          </mxGeometry>
        </mxCell>
        <mxCell id="ppZpx-Pa-e-hHyihqGD--45" value="Cancel a Booking" style="edgeLabel;html=1;align=center;verticalAlign=middle;resizable=0;points=[];" parent="ppZpx-Pa-e-hHyihqGD--44" vertex="1" connectable="0">
          <mxGeometry x="-0.6563" y="-1" relative="1" as="geometry">
            <mxPoint y="-1" as="offset" />
          </mxGeometry>
        </mxCell>
        <mxCell id="ppZpx-Pa-e-hHyihqGD--51" style="edgeStyle=orthogonalEdgeStyle;rounded=0;orthogonalLoop=1;jettySize=auto;html=1;elbow=vertical;" parent="1" source="ppZpx-Pa-e-hHyihqGD--50" target="ZLwZV-bg8Acif6kUYm4L-146" edge="1">
          <mxGeometry relative="1" as="geometry">
            <Array as="points">
              <mxPoint x="790" y="1720" />
              <mxPoint x="440" y="1720" />
            </Array>
          </mxGeometry>
        </mxCell>
        <mxCell id="ppZpx-Pa-e-hHyihqGD--52" value="Delete a Address&lt;div&gt;or&lt;/div&gt;&lt;div&gt;Add a Address&lt;/div&gt;" style="edgeLabel;html=1;align=center;verticalAlign=middle;resizable=0;points=[];" parent="ppZpx-Pa-e-hHyihqGD--51" vertex="1" connectable="0">
          <mxGeometry x="-0.872" y="-1" relative="1" as="geometry">
            <mxPoint as="offset" />
          </mxGeometry>
        </mxCell>
        <mxCell id="ppZpx-Pa-e-hHyihqGD--50" value="Delete Or Add&lt;div&gt;Address&lt;/div&gt;" style="rhombus;whiteSpace=wrap;html=1;" parent="1" vertex="1">
          <mxGeometry x="740" y="1110" width="100" height="80" as="geometry" />
        </mxCell>
      </root>
    </mxGraphModel>
  </diagram>
  <diagram id="M308GpORbwD1WkboZ4a1" name="AdminFlow">
    <mxGraphModel dx="2590" dy="1515" grid="1" gridSize="10" guides="1" tooltips="1" connect="1" arrows="1" fold="1" page="1" pageScale="1" pageWidth="850" pageHeight="1100" math="0" shadow="0">
      <root>
        <mxCell id="0" />
        <mxCell id="1" parent="0" />
        <mxCell id="mDGWvCE2u4lPjmgv2hjo-1" style="edgeStyle=orthogonalEdgeStyle;rounded=0;orthogonalLoop=1;jettySize=auto;html=1;" parent="1" source="mDGWvCE2u4lPjmgv2hjo-2" edge="1">
          <mxGeometry relative="1" as="geometry">
            <mxPoint x="930" y="270" as="targetPoint" />
          </mxGeometry>
        </mxCell>
        <mxCell id="mDGWvCE2u4lPjmgv2hjo-2" value="Admin" style="ellipse;whiteSpace=wrap;html=1;" parent="1" vertex="1">
          <mxGeometry x="870" y="140" width="120" height="80" as="geometry" />
        </mxCell>
        <mxCell id="mDGWvCE2u4lPjmgv2hjo-3" style="edgeStyle=orthogonalEdgeStyle;rounded=0;orthogonalLoop=1;jettySize=auto;html=1;" parent="1" source="mDGWvCE2u4lPjmgv2hjo-4" target="mDGWvCE2u4lPjmgv2hjo-10" edge="1">
          <mxGeometry relative="1" as="geometry">
            <mxPoint x="925" y="390" as="targetPoint" />
          </mxGeometry>
        </mxCell>
        <mxCell id="mDGWvCE2u4lPjmgv2hjo-4" value="Admin Login&lt;div&gt;Email and&amp;nbsp;&lt;/div&gt;&lt;div&gt;Password&lt;/div&gt;" style="shape=parallelogram;html=1;strokeWidth=2;perimeter=parallelogramPerimeter;whiteSpace=wrap;rounded=1;arcSize=12;size=0.23;" parent="1" vertex="1">
          <mxGeometry x="860" y="270" width="130" height="60" as="geometry" />
        </mxCell>
        <mxCell id="mDGWvCE2u4lPjmgv2hjo-5" style="edgeStyle=orthogonalEdgeStyle;rounded=0;orthogonalLoop=1;jettySize=auto;html=1;" parent="1" source="mDGWvCE2u4lPjmgv2hjo-10" target="mDGWvCE2u4lPjmgv2hjo-12" edge="1">
          <mxGeometry relative="1" as="geometry">
            <mxPoint x="780" y="510" as="targetPoint" />
          </mxGeometry>
        </mxCell>
        <mxCell id="mDGWvCE2u4lPjmgv2hjo-6" style="edgeStyle=none;rounded=0;orthogonalLoop=1;jettySize=auto;html=1;exitX=0.145;exitY=0.855;exitDx=0;exitDy=0;exitPerimeter=0;" parent="1" source="mDGWvCE2u4lPjmgv2hjo-10" edge="1">
          <mxGeometry relative="1" as="geometry">
            <mxPoint x="860" y="530" as="targetPoint" />
          </mxGeometry>
        </mxCell>
        <mxCell id="mDGWvCE2u4lPjmgv2hjo-7" style="edgeStyle=none;rounded=0;orthogonalLoop=1;jettySize=auto;html=1;exitX=0.855;exitY=0.855;exitDx=0;exitDy=0;exitPerimeter=0;" parent="1" source="mDGWvCE2u4lPjmgv2hjo-10" target="mDGWvCE2u4lPjmgv2hjo-56" edge="1">
          <mxGeometry relative="1" as="geometry">
            <mxPoint x="1070" y="540" as="targetPoint" />
          </mxGeometry>
        </mxCell>
        <mxCell id="mDGWvCE2u4lPjmgv2hjo-8" style="edgeStyle=orthogonalEdgeStyle;rounded=0;orthogonalLoop=1;jettySize=auto;html=1;entryX=0.75;entryY=0;entryDx=0;entryDy=0;" parent="1" source="mDGWvCE2u4lPjmgv2hjo-10" target="mDGWvCE2u4lPjmgv2hjo-37" edge="1">
          <mxGeometry relative="1" as="geometry" />
        </mxCell>
        <mxCell id="mDGWvCE2u4lPjmgv2hjo-9" style="edgeStyle=none;rounded=0;orthogonalLoop=1;jettySize=auto;html=1;" parent="1" source="mDGWvCE2u4lPjmgv2hjo-10" target="mDGWvCE2u4lPjmgv2hjo-72" edge="1">
          <mxGeometry relative="1" as="geometry">
            <mxPoint x="1690" y="520" as="targetPoint" />
          </mxGeometry>
        </mxCell>
        <mxCell id="qucbxYP8t9zDgEXdA1qr-1" style="edgeStyle=orthogonalEdgeStyle;rounded=0;orthogonalLoop=1;jettySize=auto;html=1;exitX=0.855;exitY=0.145;exitDx=0;exitDy=0;exitPerimeter=0;" parent="1" source="mDGWvCE2u4lPjmgv2hjo-10" target="qucbxYP8t9zDgEXdA1qr-2" edge="1">
          <mxGeometry relative="1" as="geometry">
            <mxPoint x="1850" y="520" as="targetPoint" />
          </mxGeometry>
        </mxCell>
        <mxCell id="mDGWvCE2u4lPjmgv2hjo-10" value="Dashboard" style="strokeWidth=2;html=1;shape=mxgraph.flowchart.start_2;whiteSpace=wrap;" parent="1" vertex="1">
          <mxGeometry x="875" y="380" width="100" height="100" as="geometry" />
        </mxCell>
        <mxCell id="mDGWvCE2u4lPjmgv2hjo-11" style="edgeStyle=orthogonalEdgeStyle;rounded=0;orthogonalLoop=1;jettySize=auto;html=1;" parent="1" source="mDGWvCE2u4lPjmgv2hjo-12" target="mDGWvCE2u4lPjmgv2hjo-19" edge="1">
          <mxGeometry relative="1" as="geometry">
            <mxPoint x="710" y="630" as="targetPoint" />
          </mxGeometry>
        </mxCell>
        <mxCell id="mDGWvCE2u4lPjmgv2hjo-12" value="Orders Management" style="rounded=1;whiteSpace=wrap;html=1;absoluteArcSize=1;arcSize=14;strokeWidth=2;" parent="1" vertex="1">
          <mxGeometry x="660" y="490" width="100" height="100" as="geometry" />
        </mxCell>
        <mxCell id="mDGWvCE2u4lPjmgv2hjo-13" style="edgeStyle=orthogonalEdgeStyle;rounded=0;orthogonalLoop=1;jettySize=auto;html=1;entryX=0.5;entryY=0;entryDx=0;entryDy=0;entryPerimeter=0;" parent="1" source="mDGWvCE2u4lPjmgv2hjo-19" target="mDGWvCE2u4lPjmgv2hjo-25" edge="1">
          <mxGeometry relative="1" as="geometry">
            <mxPoint x="710" y="830.32001953125" as="targetPoint" />
          </mxGeometry>
        </mxCell>
        <mxCell id="mDGWvCE2u4lPjmgv2hjo-14" value="Pending Orders" style="edgeLabel;html=1;align=center;verticalAlign=middle;resizable=0;points=[];" parent="mDGWvCE2u4lPjmgv2hjo-13" vertex="1" connectable="0">
          <mxGeometry x="-0.2332" y="1" relative="1" as="geometry">
            <mxPoint x="-1" y="-22" as="offset" />
          </mxGeometry>
        </mxCell>
        <mxCell id="mDGWvCE2u4lPjmgv2hjo-15" style="edgeStyle=orthogonalEdgeStyle;rounded=0;orthogonalLoop=1;jettySize=auto;html=1;" parent="1" source="mDGWvCE2u4lPjmgv2hjo-19" edge="1">
          <mxGeometry relative="1" as="geometry">
            <mxPoint x="820" y="780" as="targetPoint" />
          </mxGeometry>
        </mxCell>
        <mxCell id="mDGWvCE2u4lPjmgv2hjo-16" value="All Orders" style="edgeLabel;html=1;align=center;verticalAlign=middle;resizable=0;points=[];" parent="mDGWvCE2u4lPjmgv2hjo-15" vertex="1" connectable="0">
          <mxGeometry x="0.0242" y="1" relative="1" as="geometry">
            <mxPoint as="offset" />
          </mxGeometry>
        </mxCell>
        <mxCell id="mDGWvCE2u4lPjmgv2hjo-17" style="edgeStyle=orthogonalEdgeStyle;rounded=0;orthogonalLoop=1;jettySize=auto;html=1;" parent="1" source="mDGWvCE2u4lPjmgv2hjo-19" edge="1">
          <mxGeometry relative="1" as="geometry">
            <mxPoint x="480" y="705" as="targetPoint" />
          </mxGeometry>
        </mxCell>
        <mxCell id="mDGWvCE2u4lPjmgv2hjo-18" value="Ongoing Orders" style="edgeLabel;html=1;align=center;verticalAlign=middle;resizable=0;points=[];" parent="mDGWvCE2u4lPjmgv2hjo-17" vertex="1" connectable="0">
          <mxGeometry x="0.2488" y="-1" relative="1" as="geometry">
            <mxPoint as="offset" />
          </mxGeometry>
        </mxCell>
        <mxCell id="mDGWvCE2u4lPjmgv2hjo-19" value="Upcoming Orders&lt;div&gt;Pending Orders&amp;nbsp;&lt;/div&gt;&lt;div&gt;All Orders&lt;/div&gt;" style="strokeWidth=2;html=1;shape=mxgraph.flowchart.decision;whiteSpace=wrap;" parent="1" vertex="1">
          <mxGeometry x="635" y="640" width="150" height="130" as="geometry" />
        </mxCell>
        <mxCell id="mDGWvCE2u4lPjmgv2hjo-20" value="End" style="strokeWidth=2;html=1;shape=mxgraph.flowchart.start_1;whiteSpace=wrap;" parent="1" vertex="1">
          <mxGeometry x="880" y="1230" width="100" height="60" as="geometry" />
        </mxCell>
        <mxCell id="mDGWvCE2u4lPjmgv2hjo-21" style="edgeStyle=orthogonalEdgeStyle;rounded=0;orthogonalLoop=1;jettySize=auto;html=1;" parent="1" source="mDGWvCE2u4lPjmgv2hjo-25" edge="1">
          <mxGeometry relative="1" as="geometry">
            <mxPoint x="570" y="880" as="targetPoint" />
          </mxGeometry>
        </mxCell>
        <mxCell id="mDGWvCE2u4lPjmgv2hjo-22" value="Assign" style="edgeLabel;html=1;align=center;verticalAlign=middle;resizable=0;points=[];" parent="mDGWvCE2u4lPjmgv2hjo-21" vertex="1" connectable="0">
          <mxGeometry x="-0.0221" relative="1" as="geometry">
            <mxPoint as="offset" />
          </mxGeometry>
        </mxCell>
        <mxCell id="mDGWvCE2u4lPjmgv2hjo-23" style="edgeStyle=orthogonalEdgeStyle;rounded=0;orthogonalLoop=1;jettySize=auto;html=1;entryX=0.25;entryY=1;entryDx=0;entryDy=0;" parent="1" source="mDGWvCE2u4lPjmgv2hjo-25" target="mDGWvCE2u4lPjmgv2hjo-31" edge="1">
          <mxGeometry relative="1" as="geometry" />
        </mxCell>
        <mxCell id="mDGWvCE2u4lPjmgv2hjo-24" value="Reject" style="edgeLabel;html=1;align=center;verticalAlign=middle;resizable=0;points=[];" parent="mDGWvCE2u4lPjmgv2hjo-23" vertex="1" connectable="0">
          <mxGeometry x="-0.5837" y="2" relative="1" as="geometry">
            <mxPoint as="offset" />
          </mxGeometry>
        </mxCell>
        <mxCell id="mDGWvCE2u4lPjmgv2hjo-25" value="Assign Order To Provider" style="strokeWidth=2;html=1;shape=mxgraph.flowchart.decision;whiteSpace=wrap;" parent="1" vertex="1">
          <mxGeometry x="650" y="880" width="120" height="100" as="geometry" />
        </mxCell>
        <mxCell id="mDGWvCE2u4lPjmgv2hjo-26" style="edgeStyle=orthogonalEdgeStyle;rounded=0;orthogonalLoop=1;jettySize=auto;html=1;" parent="1" source="mDGWvCE2u4lPjmgv2hjo-27" target="mDGWvCE2u4lPjmgv2hjo-29" edge="1">
          <mxGeometry relative="1" as="geometry">
            <mxPoint x="520" y="950" as="targetPoint" />
          </mxGeometry>
        </mxCell>
        <mxCell id="mDGWvCE2u4lPjmgv2hjo-27" value="Select Provider&lt;div&gt;Available&lt;/div&gt;" style="shape=parallelogram;html=1;strokeWidth=2;perimeter=parallelogramPerimeter;whiteSpace=wrap;rounded=1;arcSize=12;size=0.23;" parent="1" vertex="1">
          <mxGeometry x="460" y="870" width="120" height="60" as="geometry" />
        </mxCell>
        <mxCell id="mDGWvCE2u4lPjmgv2hjo-28" style="edgeStyle=orthogonalEdgeStyle;rounded=0;orthogonalLoop=1;jettySize=auto;html=1;" parent="1" source="mDGWvCE2u4lPjmgv2hjo-29" edge="1">
          <mxGeometry relative="1" as="geometry">
            <mxPoint x="360" y="740" as="targetPoint" />
          </mxGeometry>
        </mxCell>
        <mxCell id="mDGWvCE2u4lPjmgv2hjo-29" value="Assign&lt;div&gt;Provider&lt;/div&gt;&lt;div&gt;&lt;br&gt;&lt;/div&gt;" style="rounded=1;whiteSpace=wrap;html=1;absoluteArcSize=1;arcSize=14;strokeWidth=2;" parent="1" vertex="1">
          <mxGeometry x="470" y="980" width="100" height="100" as="geometry" />
        </mxCell>
        <mxCell id="mDGWvCE2u4lPjmgv2hjo-30" value="Ongoing Orders" style="rounded=1;whiteSpace=wrap;html=1;absoluteArcSize=1;arcSize=14;strokeWidth=2;" parent="1" vertex="1">
          <mxGeometry x="350" y="640" width="130" height="100" as="geometry" />
        </mxCell>
        <mxCell id="mDGWvCE2u4lPjmgv2hjo-31" value="All Orders with Order Status&lt;div&gt;Completed Or&lt;/div&gt;&lt;div&gt;Cancelled&lt;/div&gt;" style="rounded=1;whiteSpace=wrap;html=1;absoluteArcSize=1;arcSize=14;strokeWidth=2;" parent="1" vertex="1">
          <mxGeometry x="780" y="780" width="100" height="100" as="geometry" />
        </mxCell>
        <mxCell id="mDGWvCE2u4lPjmgv2hjo-32" style="edgeStyle=orthogonalEdgeStyle;rounded=0;orthogonalLoop=1;jettySize=auto;html=1;entryX=0;entryY=0.5;entryDx=0;entryDy=0;entryPerimeter=0;" parent="1" source="mDGWvCE2u4lPjmgv2hjo-31" target="mDGWvCE2u4lPjmgv2hjo-20" edge="1">
          <mxGeometry relative="1" as="geometry" />
        </mxCell>
        <mxCell id="mDGWvCE2u4lPjmgv2hjo-33" value="Order&amp;nbsp;&lt;div&gt;Completted Cancelled&lt;div&gt;&lt;br&gt;&lt;/div&gt;&lt;/div&gt;" style="strokeWidth=2;html=1;shape=mxgraph.flowchart.decision;whiteSpace=wrap;" parent="1" vertex="1">
          <mxGeometry x="365" y="770" width="100" height="100" as="geometry" />
        </mxCell>
        <mxCell id="mDGWvCE2u4lPjmgv2hjo-34" style="edgeStyle=orthogonalEdgeStyle;rounded=0;orthogonalLoop=1;jettySize=auto;html=1;entryX=0.5;entryY=0;entryDx=0;entryDy=0;entryPerimeter=0;" parent="1" source="mDGWvCE2u4lPjmgv2hjo-30" target="mDGWvCE2u4lPjmgv2hjo-33" edge="1">
          <mxGeometry relative="1" as="geometry" />
        </mxCell>
        <mxCell id="mDGWvCE2u4lPjmgv2hjo-35" style="edgeStyle=orthogonalEdgeStyle;rounded=0;orthogonalLoop=1;jettySize=auto;html=1;entryX=-0.017;entryY=0.402;entryDx=0;entryDy=0;entryPerimeter=0;" parent="1" source="mDGWvCE2u4lPjmgv2hjo-33" target="mDGWvCE2u4lPjmgv2hjo-31" edge="1">
          <mxGeometry relative="1" as="geometry" />
        </mxCell>
        <mxCell id="mDGWvCE2u4lPjmgv2hjo-36" value="Completed&amp;nbsp;&lt;div&gt;Or&amp;nbsp;&lt;/div&gt;&lt;div&gt;Cancelled&amp;nbsp;&lt;div&gt;&lt;br&gt;&lt;/div&gt;&lt;/div&gt;" style="edgeLabel;html=1;align=center;verticalAlign=middle;resizable=0;points=[];" parent="mDGWvCE2u4lPjmgv2hjo-35" vertex="1" connectable="0">
          <mxGeometry x="-0.7558" relative="1" as="geometry">
            <mxPoint as="offset" />
          </mxGeometry>
        </mxCell>
        <mxCell id="mDGWvCE2u4lPjmgv2hjo-37" value="Logout" style="rounded=1;whiteSpace=wrap;html=1;absoluteArcSize=1;arcSize=14;strokeWidth=2;" parent="1" vertex="1">
          <mxGeometry x="1900" y="870" width="100" height="100" as="geometry" />
        </mxCell>
        <mxCell id="mDGWvCE2u4lPjmgv2hjo-38" style="edgeStyle=none;rounded=0;orthogonalLoop=1;jettySize=auto;html=1;entryX=1;entryY=0.5;entryDx=0;entryDy=0;entryPerimeter=0;" parent="1" source="mDGWvCE2u4lPjmgv2hjo-37" target="mDGWvCE2u4lPjmgv2hjo-20" edge="1">
          <mxGeometry relative="1" as="geometry">
            <Array as="points">
              <mxPoint x="1360" y="1260" />
            </Array>
          </mxGeometry>
        </mxCell>
        <mxCell id="mDGWvCE2u4lPjmgv2hjo-39" style="edgeStyle=orthogonalEdgeStyle;rounded=0;orthogonalLoop=1;jettySize=auto;html=1;" parent="1" source="mDGWvCE2u4lPjmgv2hjo-40" target="mDGWvCE2u4lPjmgv2hjo-44" edge="1">
          <mxGeometry relative="1" as="geometry">
            <mxPoint x="940.0000000000005" y="800.0028397042415" as="targetPoint" />
          </mxGeometry>
        </mxCell>
        <mxCell id="mDGWvCE2u4lPjmgv2hjo-40" value="Add&amp;nbsp;&lt;div&gt;Sub Category&lt;/div&gt;" style="rounded=1;whiteSpace=wrap;html=1;absoluteArcSize=1;arcSize=14;strokeWidth=2;" parent="1" vertex="1">
          <mxGeometry x="800" y="530" width="100" height="100" as="geometry" />
        </mxCell>
        <mxCell id="mDGWvCE2u4lPjmgv2hjo-41" style="edgeStyle=orthogonalEdgeStyle;rounded=0;orthogonalLoop=1;jettySize=auto;html=1;" parent="1" source="mDGWvCE2u4lPjmgv2hjo-44" edge="1">
          <mxGeometry relative="1" as="geometry">
            <mxPoint x="950" y="999.9999999999998" as="targetPoint" />
            <Array as="points">
              <mxPoint x="960" y="980" />
              <mxPoint x="950" y="980" />
            </Array>
          </mxGeometry>
        </mxCell>
        <mxCell id="mDGWvCE2u4lPjmgv2hjo-42" style="edgeStyle=none;rounded=0;orthogonalLoop=1;jettySize=auto;html=1;" parent="1" source="mDGWvCE2u4lPjmgv2hjo-44" target="mDGWvCE2u4lPjmgv2hjo-48" edge="1">
          <mxGeometry relative="1" as="geometry">
            <mxPoint x="1110" y="874.9999999999998" as="targetPoint" />
          </mxGeometry>
        </mxCell>
        <mxCell id="mDGWvCE2u4lPjmgv2hjo-43" style="edgeStyle=orthogonalEdgeStyle;curved=1;rounded=0;orthogonalLoop=1;jettySize=auto;html=1;" parent="1" source="mDGWvCE2u4lPjmgv2hjo-44" target="mDGWvCE2u4lPjmgv2hjo-53" edge="1">
          <mxGeometry relative="1" as="geometry">
            <mxPoint x="1060" y="809.9999999999998" as="targetPoint" />
          </mxGeometry>
        </mxCell>
        <mxCell id="mDGWvCE2u4lPjmgv2hjo-44" value="Add,&lt;div&gt;Delete,&lt;/div&gt;&lt;div&gt;Edit&amp;nbsp;&lt;/div&gt;&lt;div&gt;Subcategory&lt;/div&gt;" style="strokeWidth=2;html=1;shape=mxgraph.flowchart.decision;whiteSpace=wrap;" parent="1" vertex="1">
          <mxGeometry x="900" y="810" width="120" height="130" as="geometry" />
        </mxCell>
        <mxCell id="mDGWvCE2u4lPjmgv2hjo-45" value="Delete Subcategory" style="rounded=1;whiteSpace=wrap;html=1;absoluteArcSize=1;arcSize=14;strokeWidth=2;" parent="1" vertex="1">
          <mxGeometry x="910" y="1000" width="100" height="100" as="geometry" />
        </mxCell>
        <mxCell id="mDGWvCE2u4lPjmgv2hjo-46" style="edgeStyle=none;rounded=0;orthogonalLoop=1;jettySize=auto;html=1;entryX=0.758;entryY=0.101;entryDx=0;entryDy=0;entryPerimeter=0;" parent="1" source="mDGWvCE2u4lPjmgv2hjo-45" target="mDGWvCE2u4lPjmgv2hjo-20" edge="1">
          <mxGeometry relative="1" as="geometry" />
        </mxCell>
        <mxCell id="mDGWvCE2u4lPjmgv2hjo-47" value="Delete" style="edgeLabel;html=1;align=center;verticalAlign=middle;resizable=0;points=[];" parent="mDGWvCE2u4lPjmgv2hjo-46" vertex="1" connectable="0">
          <mxGeometry x="0.3313" y="-2" relative="1" as="geometry">
            <mxPoint as="offset" />
          </mxGeometry>
        </mxCell>
        <mxCell id="mDGWvCE2u4lPjmgv2hjo-48" value="Enter&amp;nbsp;&lt;div&gt;Subcategory&lt;/div&gt;&lt;div&gt;Details&lt;/div&gt;" style="shape=parallelogram;html=1;strokeWidth=2;perimeter=parallelogramPerimeter;whiteSpace=wrap;rounded=1;arcSize=12;size=0.23;" parent="1" vertex="1">
          <mxGeometry x="1060" y="844.9999999999998" width="100" height="60" as="geometry" />
        </mxCell>
        <mxCell id="mDGWvCE2u4lPjmgv2hjo-49" style="edgeStyle=orthogonalEdgeStyle;curved=1;rounded=0;orthogonalLoop=1;jettySize=auto;html=1;entryX=1;entryY=0.5;entryDx=0;entryDy=0;entryPerimeter=0;" parent="1" source="mDGWvCE2u4lPjmgv2hjo-48" target="mDGWvCE2u4lPjmgv2hjo-20" edge="1">
          <mxGeometry relative="1" as="geometry" />
        </mxCell>
        <mxCell id="mDGWvCE2u4lPjmgv2hjo-50" value="\Save" style="edgeLabel;html=1;align=center;verticalAlign=middle;resizable=0;points=[];" parent="mDGWvCE2u4lPjmgv2hjo-49" vertex="1" connectable="0">
          <mxGeometry x="0.4867" y="-7" relative="1" as="geometry">
            <mxPoint as="offset" />
          </mxGeometry>
        </mxCell>
        <mxCell id="mDGWvCE2u4lPjmgv2hjo-51" style="edgeStyle=orthogonalEdgeStyle;rounded=0;orthogonalLoop=1;jettySize=auto;html=1;" parent="1" source="mDGWvCE2u4lPjmgv2hjo-53" edge="1">
          <mxGeometry relative="1" as="geometry">
            <mxPoint x="1210" y="1229.9999999999998" as="targetPoint" />
          </mxGeometry>
        </mxCell>
        <mxCell id="mDGWvCE2u4lPjmgv2hjo-52" value="Edit" style="edgeLabel;html=1;align=center;verticalAlign=middle;resizable=0;points=[];" parent="mDGWvCE2u4lPjmgv2hjo-51" vertex="1" connectable="0">
          <mxGeometry x="-0.2064" y="3" relative="1" as="geometry">
            <mxPoint y="1" as="offset" />
          </mxGeometry>
        </mxCell>
        <mxCell id="mDGWvCE2u4lPjmgv2hjo-53" value="Edit Subcategory&lt;div&gt;&lt;br&gt;&lt;/div&gt;" style="rounded=1;whiteSpace=wrap;html=1;absoluteArcSize=1;arcSize=14;strokeWidth=2;" parent="1" vertex="1">
          <mxGeometry x="1060" y="719.9999999999998" width="100" height="100" as="geometry" />
        </mxCell>
        <mxCell id="mDGWvCE2u4lPjmgv2hjo-54" value="" style="endArrow=classic;html=1;rounded=0;entryX=0.979;entryY=0.266;entryDx=0;entryDy=0;entryPerimeter=0;" parent="1" target="mDGWvCE2u4lPjmgv2hjo-20" edge="1">
          <mxGeometry width="50" height="50" relative="1" as="geometry">
            <mxPoint x="1210" y="1230" as="sourcePoint" />
            <mxPoint x="1170" y="1170" as="targetPoint" />
          </mxGeometry>
        </mxCell>
        <mxCell id="mDGWvCE2u4lPjmgv2hjo-55" style="edgeStyle=none;rounded=0;orthogonalLoop=1;jettySize=auto;html=1;entryX=0.5;entryY=0;entryDx=0;entryDy=0;entryPerimeter=0;" parent="1" source="mDGWvCE2u4lPjmgv2hjo-56" target="mDGWvCE2u4lPjmgv2hjo-60" edge="1">
          <mxGeometry relative="1" as="geometry">
            <mxPoint x="1270" y="570" as="targetPoint" />
            <Array as="points" />
          </mxGeometry>
        </mxCell>
        <mxCell id="mDGWvCE2u4lPjmgv2hjo-56" value="Provider List" style="rounded=1;whiteSpace=wrap;html=1;absoluteArcSize=1;arcSize=14;strokeWidth=2;" parent="1" vertex="1">
          <mxGeometry x="1014" y="520" width="100" height="100" as="geometry" />
        </mxCell>
        <mxCell id="mDGWvCE2u4lPjmgv2hjo-57" style="edgeStyle=none;rounded=0;orthogonalLoop=1;jettySize=auto;html=1;exitX=1;exitY=0.5;exitDx=0;exitDy=0;exitPerimeter=0;" parent="1" source="mDGWvCE2u4lPjmgv2hjo-60" target="mDGWvCE2u4lPjmgv2hjo-61" edge="1">
          <mxGeometry relative="1" as="geometry">
            <mxPoint x="1410" y="584.6470588235295" as="targetPoint" />
          </mxGeometry>
        </mxCell>
        <mxCell id="mDGWvCE2u4lPjmgv2hjo-58" style="edgeStyle=orthogonalEdgeStyle;curved=1;rounded=0;orthogonalLoop=1;jettySize=auto;html=1;exitX=0.128;exitY=0.353;exitDx=0;exitDy=0;exitPerimeter=0;" parent="1" source="mDGWvCE2u4lPjmgv2hjo-60" target="mDGWvCE2u4lPjmgv2hjo-64" edge="1">
          <mxGeometry relative="1" as="geometry">
            <mxPoint x="1300" y="710" as="targetPoint" />
            <Array as="points">
              <mxPoint x="1255" y="585" />
              <mxPoint x="1220" y="585" />
              <mxPoint x="1220" y="695" />
              <mxPoint x="1300" y="695" />
            </Array>
          </mxGeometry>
        </mxCell>
        <mxCell id="mDGWvCE2u4lPjmgv2hjo-59" style="edgeStyle=orthogonalEdgeStyle;curved=1;rounded=0;orthogonalLoop=1;jettySize=auto;html=1;" parent="1" source="mDGWvCE2u4lPjmgv2hjo-60" target="mDGWvCE2u4lPjmgv2hjo-69" edge="1">
          <mxGeometry relative="1" as="geometry">
            <mxPoint x="1320" y="880" as="targetPoint" />
            <Array as="points">
              <mxPoint x="1300" y="720" />
              <mxPoint x="1351" y="720" />
              <mxPoint x="1351" y="830" />
            </Array>
          </mxGeometry>
        </mxCell>
        <mxCell id="mDGWvCE2u4lPjmgv2hjo-60" value="Add,&lt;div&gt;Delete&lt;/div&gt;&lt;div&gt;Edit Provider&lt;/div&gt;" style="strokeWidth=2;html=1;shape=mxgraph.flowchart.decision;whiteSpace=wrap;" parent="1" vertex="1">
          <mxGeometry x="1240" y="540" width="120" height="120" as="geometry" />
        </mxCell>
        <mxCell id="mDGWvCE2u4lPjmgv2hjo-61" value="Enter Provider&amp;nbsp;&lt;div&gt;Details&lt;/div&gt;" style="shape=parallelogram;html=1;strokeWidth=2;perimeter=parallelogramPerimeter;whiteSpace=wrap;rounded=1;arcSize=12;size=0.23;" parent="1" vertex="1">
          <mxGeometry x="1390" y="555" width="120" height="60" as="geometry" />
        </mxCell>
        <mxCell id="mDGWvCE2u4lPjmgv2hjo-62" style="edgeStyle=orthogonalEdgeStyle;curved=1;rounded=0;orthogonalLoop=1;jettySize=auto;html=1;entryX=1;entryY=0.5;entryDx=0;entryDy=0;entryPerimeter=0;exitX=0.046;exitY=0.971;exitDx=0;exitDy=0;exitPerimeter=0;" parent="1" edge="1">
          <mxGeometry relative="1" as="geometry">
            <mxPoint x="1395.5200000000002" y="615.0000000000001" as="sourcePoint" />
            <mxPoint x="980" y="1261.74" as="targetPoint" />
            <Array as="points">
              <mxPoint x="1390" y="614.74" />
              <mxPoint x="1390" y="1261.74" />
            </Array>
          </mxGeometry>
        </mxCell>
        <mxCell id="mDGWvCE2u4lPjmgv2hjo-63" value="Save&lt;div&gt;&lt;br&gt;&lt;/div&gt;" style="edgeLabel;html=1;align=center;verticalAlign=middle;resizable=0;points=[];" parent="mDGWvCE2u4lPjmgv2hjo-62" vertex="1" connectable="0">
          <mxGeometry x="-0.2208" y="-61" relative="1" as="geometry">
            <mxPoint x="51" y="6" as="offset" />
          </mxGeometry>
        </mxCell>
        <mxCell id="mDGWvCE2u4lPjmgv2hjo-64" value="Delete&lt;div&gt;Provider&lt;/div&gt;" style="rounded=1;whiteSpace=wrap;html=1;absoluteArcSize=1;arcSize=14;strokeWidth=2;" parent="1" vertex="1">
          <mxGeometry x="1230" y="740" width="90" height="70" as="geometry" />
        </mxCell>
        <mxCell id="mDGWvCE2u4lPjmgv2hjo-65" style="edgeStyle=orthogonalEdgeStyle;curved=1;rounded=0;orthogonalLoop=1;jettySize=auto;html=1;entryX=0.855;entryY=0.145;entryDx=0;entryDy=0;entryPerimeter=0;" parent="1" source="mDGWvCE2u4lPjmgv2hjo-64" target="mDGWvCE2u4lPjmgv2hjo-20" edge="1">
          <mxGeometry relative="1" as="geometry">
            <Array as="points">
              <mxPoint x="1270" y="1239" />
            </Array>
          </mxGeometry>
        </mxCell>
        <mxCell id="mDGWvCE2u4lPjmgv2hjo-66" value="Delete" style="edgeLabel;html=1;align=center;verticalAlign=middle;resizable=0;points=[];" parent="mDGWvCE2u4lPjmgv2hjo-65" vertex="1" connectable="0">
          <mxGeometry x="-0.3246" y="-35" relative="1" as="geometry">
            <mxPoint y="1" as="offset" />
          </mxGeometry>
        </mxCell>
        <mxCell id="mDGWvCE2u4lPjmgv2hjo-67" style="edgeStyle=none;rounded=0;orthogonalLoop=1;jettySize=auto;html=1;movable=1;resizable=1;rotatable=1;deletable=1;editable=1;locked=0;connectable=1;endArrow=none;endFill=0;" parent="1" source="mDGWvCE2u4lPjmgv2hjo-69" edge="1">
          <mxGeometry relative="1" as="geometry">
            <mxPoint x="1220" y="1190" as="targetPoint" />
          </mxGeometry>
        </mxCell>
        <mxCell id="mDGWvCE2u4lPjmgv2hjo-68" value="Edit" style="edgeLabel;html=1;align=center;verticalAlign=middle;resizable=0;points=[];" parent="mDGWvCE2u4lPjmgv2hjo-67" vertex="1" connectable="0">
          <mxGeometry x="0.4666" y="1" relative="1" as="geometry">
            <mxPoint as="offset" />
          </mxGeometry>
        </mxCell>
        <mxCell id="mDGWvCE2u4lPjmgv2hjo-69" value="Edit Provider Details" style="rounded=1;whiteSpace=wrap;html=1;absoluteArcSize=1;arcSize=14;strokeWidth=2;" parent="1" vertex="1">
          <mxGeometry x="1280" y="845" width="100" height="100" as="geometry" />
        </mxCell>
        <mxCell id="mDGWvCE2u4lPjmgv2hjo-70" value="" style="endArrow=classic;html=1;rounded=0;movable=0;resizable=0;rotatable=0;deletable=0;editable=0;locked=1;connectable=0;" parent="1" edge="1">
          <mxGeometry width="50" height="50" relative="1" as="geometry">
            <mxPoint x="1220" y="1190" as="sourcePoint" />
            <mxPoint x="980" y="1250" as="targetPoint" />
          </mxGeometry>
        </mxCell>
        <mxCell id="mDGWvCE2u4lPjmgv2hjo-71" style="edgeStyle=none;rounded=0;orthogonalLoop=1;jettySize=auto;html=1;" parent="1" source="mDGWvCE2u4lPjmgv2hjo-72" target="mDGWvCE2u4lPjmgv2hjo-74" edge="1">
          <mxGeometry relative="1" as="geometry">
            <mxPoint x="1690.0000000000005" y="620" as="targetPoint" />
          </mxGeometry>
        </mxCell>
        <mxCell id="mDGWvCE2u4lPjmgv2hjo-72" value="User Info&lt;div&gt;&lt;br&gt;&lt;/div&gt;" style="rounded=1;whiteSpace=wrap;html=1;absoluteArcSize=1;arcSize=14;strokeWidth=2;" parent="1" vertex="1">
          <mxGeometry x="1640.0000000000005" y="470" width="100" height="100" as="geometry" />
        </mxCell>
        <mxCell id="mDGWvCE2u4lPjmgv2hjo-73" style="edgeStyle=none;rounded=0;orthogonalLoop=1;jettySize=auto;html=1;" parent="1" source="mDGWvCE2u4lPjmgv2hjo-74" edge="1">
          <mxGeometry relative="1" as="geometry">
            <mxPoint x="1690.0000000000005" y="760" as="targetPoint" />
          </mxGeometry>
        </mxCell>
        <mxCell id="mDGWvCE2u4lPjmgv2hjo-74" value="Enter User Id" style="shape=parallelogram;html=1;strokeWidth=2;perimeter=parallelogramPerimeter;whiteSpace=wrap;rounded=1;arcSize=12;size=0.23;" parent="1" vertex="1">
          <mxGeometry x="1630" y="635" width="120" height="60" as="geometry" />
        </mxCell>
        <mxCell id="qucbxYP8t9zDgEXdA1qr-3" style="edgeStyle=orthogonalEdgeStyle;rounded=0;orthogonalLoop=1;jettySize=auto;html=1;" parent="1" source="mDGWvCE2u4lPjmgv2hjo-76" target="qucbxYP8t9zDgEXdA1qr-4" edge="1">
          <mxGeometry relative="1" as="geometry">
            <mxPoint x="1685" y="880" as="targetPoint" />
          </mxGeometry>
        </mxCell>
        <mxCell id="mDGWvCE2u4lPjmgv2hjo-76" value="Display User&amp;nbsp;&lt;div&gt;Details&lt;/div&gt;" style="shape=parallelogram;html=1;strokeWidth=2;perimeter=parallelogramPerimeter;whiteSpace=wrap;rounded=1;arcSize=12;size=0.23;" parent="1" vertex="1">
          <mxGeometry x="1620" y="760" width="130" height="60" as="geometry" />
        </mxCell>
        <mxCell id="qucbxYP8t9zDgEXdA1qr-2" value="Support Resolution for Provider and User" style="whiteSpace=wrap;html=1;aspect=fixed;rounded=1;" parent="1" vertex="1">
          <mxGeometry x="1810" y="520" width="90" height="90" as="geometry" />
        </mxCell>
        <mxCell id="qucbxYP8t9zDgEXdA1qr-4" value="Edit Or Delete" style="rhombus;whiteSpace=wrap;html=1;" parent="1" vertex="1">
          <mxGeometry x="1645" y="860" width="95" height="80" as="geometry" />
        </mxCell>
        <mxCell id="qucbxYP8t9zDgEXdA1qr-5" style="edgeStyle=orthogonalEdgeStyle;rounded=0;orthogonalLoop=1;jettySize=auto;html=1;entryX=0.855;entryY=0.855;entryDx=0;entryDy=0;entryPerimeter=0;" parent="1" source="qucbxYP8t9zDgEXdA1qr-4" target="mDGWvCE2u4lPjmgv2hjo-20" edge="1">
          <mxGeometry relative="1" as="geometry">
            <Array as="points">
              <mxPoint x="1692" y="1310" />
              <mxPoint x="966" y="1310" />
            </Array>
          </mxGeometry>
        </mxCell>
        <mxCell id="qucbxYP8t9zDgEXdA1qr-6" value="Edit" style="edgeLabel;html=1;align=center;verticalAlign=middle;resizable=0;points=[];" parent="qucbxYP8t9zDgEXdA1qr-5" vertex="1" connectable="0">
          <mxGeometry x="-0.7286" relative="1" as="geometry">
            <mxPoint as="offset" />
          </mxGeometry>
        </mxCell>
        <mxCell id="qucbxYP8t9zDgEXdA1qr-7" style="edgeStyle=orthogonalEdgeStyle;rounded=0;orthogonalLoop=1;jettySize=auto;html=1;entryX=0.855;entryY=0.145;entryDx=0;entryDy=0;entryPerimeter=0;" parent="1" source="qucbxYP8t9zDgEXdA1qr-4" target="mDGWvCE2u4lPjmgv2hjo-20" edge="1">
          <mxGeometry relative="1" as="geometry">
            <Array as="points">
              <mxPoint x="1780" y="900" />
              <mxPoint x="1780" y="1280" />
              <mxPoint x="966" y="1280" />
            </Array>
          </mxGeometry>
        </mxCell>
        <mxCell id="qucbxYP8t9zDgEXdA1qr-8" value="Delete" style="edgeLabel;html=1;align=center;verticalAlign=middle;resizable=0;points=[];" parent="qucbxYP8t9zDgEXdA1qr-7" vertex="1" connectable="0">
          <mxGeometry x="-0.4552" y="2" relative="1" as="geometry">
            <mxPoint as="offset" />
          </mxGeometry>
        </mxCell>
        <mxCell id="qucbxYP8t9zDgEXdA1qr-12" value="" style="group" parent="1" vertex="1" connectable="0">
          <mxGeometry x="920" y="1370" width="970" height="40" as="geometry" />
        </mxCell>
        <mxCell id="qucbxYP8t9zDgEXdA1qr-9" style="edgeStyle=orthogonalEdgeStyle;rounded=0;orthogonalLoop=1;jettySize=auto;html=1;endArrow=none;endFill=0;" parent="qucbxYP8t9zDgEXdA1qr-12" source="qucbxYP8t9zDgEXdA1qr-2" edge="1">
          <mxGeometry relative="1" as="geometry">
            <mxPoint x="930" as="targetPoint" />
          </mxGeometry>
        </mxCell>
        <mxCell id="qucbxYP8t9zDgEXdA1qr-10" value="Email" style="edgeLabel;html=1;align=center;verticalAlign=middle;resizable=0;points=[];" parent="qucbxYP8t9zDgEXdA1qr-9" vertex="1" connectable="0">
          <mxGeometry x="0.2718" y="-4" relative="1" as="geometry">
            <mxPoint as="offset" />
          </mxGeometry>
        </mxCell>
        <mxCell id="qucbxYP8t9zDgEXdA1qr-11" value="" style="endArrow=classic;html=1;rounded=0;entryX=0.34;entryY=1.038;entryDx=0;entryDy=0;entryPerimeter=0;endFill=1;" parent="qucbxYP8t9zDgEXdA1qr-12" target="mDGWvCE2u4lPjmgv2hjo-20" edge="1">
          <mxGeometry width="50" height="50" relative="1" as="geometry">
            <mxPoint x="930" as="sourcePoint" />
            <mxPoint x="-30" y="-20" as="targetPoint" />
            <Array as="points">
              <mxPoint x="970" y="40" />
              <mxPoint y="30" />
            </Array>
          </mxGeometry>
        </mxCell>
      </root>
    </mxGraphModel>
  </diagram>
  <diagram id="t5_lV7juOzwbKK9VOMXi" name="Provider Flow">
    <mxGraphModel dx="2072" dy="1212" grid="1" gridSize="10" guides="1" tooltips="1" connect="1" arrows="1" fold="1" page="1" pageScale="1" pageWidth="850" pageHeight="1100" math="0" shadow="0">
      <root>
        <mxCell id="0" />
        <mxCell id="1" parent="0" />
        <mxCell id="bbt3Ej26kiS1-bgbfy2X-1" style="edgeStyle=orthogonalEdgeStyle;rounded=0;orthogonalLoop=1;jettySize=auto;html=1;" parent="1" source="bbt3Ej26kiS1-bgbfy2X-2" edge="1">
          <mxGeometry relative="1" as="geometry">
            <mxPoint x="810" y="410" as="targetPoint" />
          </mxGeometry>
        </mxCell>
        <mxCell id="bbt3Ej26kiS1-bgbfy2X-2" value="&lt;b&gt;Provider&lt;/b&gt;" style="ellipse;whiteSpace=wrap;html=1;" parent="1" vertex="1">
          <mxGeometry x="750" y="280" width="120" height="80" as="geometry" />
        </mxCell>
        <mxCell id="bbt3Ej26kiS1-bgbfy2X-3" style="edgeStyle=orthogonalEdgeStyle;rounded=0;orthogonalLoop=1;jettySize=auto;html=1;" parent="1" source="bbt3Ej26kiS1-bgbfy2X-4" target="bbt3Ej26kiS1-bgbfy2X-10" edge="1">
          <mxGeometry relative="1" as="geometry">
            <mxPoint x="805" y="530" as="targetPoint" />
          </mxGeometry>
        </mxCell>
        <mxCell id="bbt3Ej26kiS1-bgbfy2X-4" value="Provider Login&lt;div&gt;Email and&amp;nbsp;&lt;/div&gt;&lt;div&gt;Password&lt;/div&gt;" style="shape=parallelogram;html=1;strokeWidth=2;perimeter=parallelogramPerimeter;whiteSpace=wrap;rounded=1;arcSize=12;size=0.23;" parent="1" vertex="1">
          <mxGeometry x="740" y="410" width="130" height="60" as="geometry" />
        </mxCell>
        <mxCell id="bbt3Ej26kiS1-bgbfy2X-5" style="edgeStyle=orthogonalEdgeStyle;rounded=0;orthogonalLoop=1;jettySize=auto;html=1;" parent="1" source="bbt3Ej26kiS1-bgbfy2X-10" target="bbt3Ej26kiS1-bgbfy2X-12" edge="1">
          <mxGeometry relative="1" as="geometry">
            <mxPoint x="660" y="650" as="targetPoint" />
          </mxGeometry>
        </mxCell>
        <mxCell id="bbt3Ej26kiS1-bgbfy2X-8" style="edgeStyle=orthogonalEdgeStyle;rounded=0;orthogonalLoop=1;jettySize=auto;html=1;entryX=0.75;entryY=0;entryDx=0;entryDy=0;" parent="1" source="bbt3Ej26kiS1-bgbfy2X-10" target="bbt3Ej26kiS1-bgbfy2X-37" edge="1">
          <mxGeometry relative="1" as="geometry" />
        </mxCell>
        <mxCell id="bbt3Ej26kiS1-bgbfy2X-9" style="edgeStyle=none;rounded=0;orthogonalLoop=1;jettySize=auto;html=1;" parent="1" source="bbt3Ej26kiS1-bgbfy2X-10" target="bbt3Ej26kiS1-bgbfy2X-72" edge="1">
          <mxGeometry relative="1" as="geometry">
            <mxPoint x="1570" y="660" as="targetPoint" />
          </mxGeometry>
        </mxCell>
        <mxCell id="Yueu4RjpidxAxk6awRSq-1" style="edgeStyle=orthogonalEdgeStyle;rounded=0;orthogonalLoop=1;jettySize=auto;html=1;" parent="1" source="bbt3Ej26kiS1-bgbfy2X-10" target="Yueu4RjpidxAxk6awRSq-2" edge="1">
          <mxGeometry relative="1" as="geometry">
            <mxPoint x="960" y="750" as="targetPoint" />
          </mxGeometry>
        </mxCell>
        <mxCell id="bbt3Ej26kiS1-bgbfy2X-10" value="Dashboard" style="strokeWidth=2;html=1;shape=mxgraph.flowchart.start_2;whiteSpace=wrap;" parent="1" vertex="1">
          <mxGeometry x="755" y="520" width="100" height="100" as="geometry" />
        </mxCell>
        <mxCell id="bbt3Ej26kiS1-bgbfy2X-11" style="edgeStyle=orthogonalEdgeStyle;rounded=0;orthogonalLoop=1;jettySize=auto;html=1;" parent="1" source="bbt3Ej26kiS1-bgbfy2X-12" target="bbt3Ej26kiS1-bgbfy2X-19" edge="1">
          <mxGeometry relative="1" as="geometry">
            <mxPoint x="590" y="770" as="targetPoint" />
          </mxGeometry>
        </mxCell>
        <mxCell id="bbt3Ej26kiS1-bgbfy2X-12" value="Orders Management" style="rounded=1;whiteSpace=wrap;html=1;absoluteArcSize=1;arcSize=14;strokeWidth=2;" parent="1" vertex="1">
          <mxGeometry x="540" y="630" width="100" height="100" as="geometry" />
        </mxCell>
        <mxCell id="bbt3Ej26kiS1-bgbfy2X-15" style="edgeStyle=orthogonalEdgeStyle;rounded=0;orthogonalLoop=1;jettySize=auto;html=1;" parent="1" source="bbt3Ej26kiS1-bgbfy2X-19" edge="1">
          <mxGeometry relative="1" as="geometry">
            <mxPoint x="700" y="920" as="targetPoint" />
          </mxGeometry>
        </mxCell>
        <mxCell id="bbt3Ej26kiS1-bgbfy2X-16" value="All Orders" style="edgeLabel;html=1;align=center;verticalAlign=middle;resizable=0;points=[];" parent="bbt3Ej26kiS1-bgbfy2X-15" vertex="1" connectable="0">
          <mxGeometry x="0.0242" y="1" relative="1" as="geometry">
            <mxPoint as="offset" />
          </mxGeometry>
        </mxCell>
        <mxCell id="bbt3Ej26kiS1-bgbfy2X-17" style="edgeStyle=orthogonalEdgeStyle;rounded=0;orthogonalLoop=1;jettySize=auto;html=1;" parent="1" source="bbt3Ej26kiS1-bgbfy2X-19" edge="1">
          <mxGeometry relative="1" as="geometry">
            <mxPoint x="360" y="845" as="targetPoint" />
          </mxGeometry>
        </mxCell>
        <mxCell id="bbt3Ej26kiS1-bgbfy2X-18" value="Upcoming Orders" style="edgeLabel;html=1;align=center;verticalAlign=middle;resizable=0;points=[];" parent="bbt3Ej26kiS1-bgbfy2X-17" vertex="1" connectable="0">
          <mxGeometry x="0.2488" y="-1" relative="1" as="geometry">
            <mxPoint as="offset" />
          </mxGeometry>
        </mxCell>
        <mxCell id="bbt3Ej26kiS1-bgbfy2X-19" value="Upcoming Orders&lt;span style=&quot;background-color: initial;&quot;&gt;&amp;nbsp;&lt;/span&gt;&lt;div&gt;All Orders&lt;/div&gt;" style="strokeWidth=2;html=1;shape=mxgraph.flowchart.decision;whiteSpace=wrap;" parent="1" vertex="1">
          <mxGeometry x="515" y="780" width="150" height="130" as="geometry" />
        </mxCell>
        <mxCell id="bbt3Ej26kiS1-bgbfy2X-20" value="End" style="strokeWidth=2;html=1;shape=mxgraph.flowchart.start_1;whiteSpace=wrap;" parent="1" vertex="1">
          <mxGeometry x="760" y="1370" width="100" height="60" as="geometry" />
        </mxCell>
        <mxCell id="Yueu4RjpidxAxk6awRSq-9" style="edgeStyle=orthogonalEdgeStyle;rounded=0;orthogonalLoop=1;jettySize=auto;html=1;exitX=1;exitY=0.75;exitDx=0;exitDy=0;entryX=0;entryY=0.25;entryDx=0;entryDy=0;" parent="1" source="bbt3Ej26kiS1-bgbfy2X-30" target="bbt3Ej26kiS1-bgbfy2X-31" edge="1">
          <mxGeometry relative="1" as="geometry" />
        </mxCell>
        <mxCell id="Yueu4RjpidxAxk6awRSq-10" value="Cancelled" style="edgeLabel;html=1;align=center;verticalAlign=middle;resizable=0;points=[];" parent="Yueu4RjpidxAxk6awRSq-9" vertex="1" connectable="0">
          <mxGeometry x="0.0296" y="-1" relative="1" as="geometry">
            <mxPoint y="-1" as="offset" />
          </mxGeometry>
        </mxCell>
        <mxCell id="bbt3Ej26kiS1-bgbfy2X-30" value="Upcoming Orders" style="rounded=1;whiteSpace=wrap;html=1;absoluteArcSize=1;arcSize=14;strokeWidth=2;" parent="1" vertex="1">
          <mxGeometry x="230" y="780" width="130" height="100" as="geometry" />
        </mxCell>
        <mxCell id="Yueu4RjpidxAxk6awRSq-3" style="edgeStyle=orthogonalEdgeStyle;rounded=0;orthogonalLoop=1;jettySize=auto;html=1;entryX=0;entryY=0.5;entryDx=0;entryDy=0;" parent="1" source="bbt3Ej26kiS1-bgbfy2X-31" target="Yueu4RjpidxAxk6awRSq-2" edge="1">
          <mxGeometry relative="1" as="geometry" />
        </mxCell>
        <mxCell id="Yueu4RjpidxAxk6awRSq-4" value="Raise Support" style="edgeLabel;html=1;align=center;verticalAlign=middle;resizable=0;points=[];" parent="Yueu4RjpidxAxk6awRSq-3" vertex="1" connectable="0">
          <mxGeometry x="0.066" y="-3" relative="1" as="geometry">
            <mxPoint y="-1" as="offset" />
          </mxGeometry>
        </mxCell>
        <mxCell id="bbt3Ej26kiS1-bgbfy2X-31" value="All Orders with Order Status&lt;div&gt;Completed Or&lt;/div&gt;&lt;div&gt;Cancelled&lt;/div&gt;" style="rounded=1;whiteSpace=wrap;html=1;absoluteArcSize=1;arcSize=14;strokeWidth=2;" parent="1" vertex="1">
          <mxGeometry x="660" y="920" width="100" height="100" as="geometry" />
        </mxCell>
        <mxCell id="bbt3Ej26kiS1-bgbfy2X-32" style="edgeStyle=orthogonalEdgeStyle;rounded=0;orthogonalLoop=1;jettySize=auto;html=1;entryX=0;entryY=0.5;entryDx=0;entryDy=0;entryPerimeter=0;" parent="1" source="bbt3Ej26kiS1-bgbfy2X-31" target="bbt3Ej26kiS1-bgbfy2X-20" edge="1">
          <mxGeometry relative="1" as="geometry" />
        </mxCell>
        <mxCell id="bbt3Ej26kiS1-bgbfy2X-82" style="edgeStyle=orthogonalEdgeStyle;curved=1;rounded=0;orthogonalLoop=1;jettySize=auto;html=1;entryX=-0.028;entryY=0.623;entryDx=0;entryDy=0;entryPerimeter=0;" parent="1" source="bbt3Ej26kiS1-bgbfy2X-33" target="bbt3Ej26kiS1-bgbfy2X-30" edge="1">
          <mxGeometry relative="1" as="geometry">
            <mxPoint x="190" y="840" as="targetPoint" />
            <Array as="points">
              <mxPoint x="160" y="960" />
              <mxPoint x="160" y="840" />
              <mxPoint x="220" y="840" />
              <mxPoint x="220" y="842" />
            </Array>
          </mxGeometry>
        </mxCell>
        <mxCell id="bbt3Ej26kiS1-bgbfy2X-83" value="Accept" style="edgeLabel;html=1;align=center;verticalAlign=middle;resizable=0;points=[];" parent="bbt3Ej26kiS1-bgbfy2X-82" vertex="1" connectable="0">
          <mxGeometry x="0.8408" y="3" relative="1" as="geometry">
            <mxPoint x="-27" y="8" as="offset" />
          </mxGeometry>
        </mxCell>
        <mxCell id="bbt3Ej26kiS1-bgbfy2X-33" value="&lt;div&gt;&lt;div&gt;Accept or&lt;/div&gt;&lt;/div&gt;&lt;div&gt;Reject&lt;/div&gt;" style="strokeWidth=2;html=1;shape=mxgraph.flowchart.decision;whiteSpace=wrap;" parent="1" vertex="1">
          <mxGeometry x="245" y="910" width="100" height="100" as="geometry" />
        </mxCell>
        <mxCell id="bbt3Ej26kiS1-bgbfy2X-34" style="edgeStyle=orthogonalEdgeStyle;rounded=0;orthogonalLoop=1;jettySize=auto;html=1;entryX=0.5;entryY=0;entryDx=0;entryDy=0;entryPerimeter=0;" parent="1" source="bbt3Ej26kiS1-bgbfy2X-30" target="bbt3Ej26kiS1-bgbfy2X-33" edge="1">
          <mxGeometry relative="1" as="geometry" />
        </mxCell>
        <mxCell id="bbt3Ej26kiS1-bgbfy2X-37" value="Logout" style="rounded=1;whiteSpace=wrap;html=1;absoluteArcSize=1;arcSize=14;strokeWidth=2;" parent="1" vertex="1">
          <mxGeometry x="1780" y="1010" width="100" height="100" as="geometry" />
        </mxCell>
        <mxCell id="bbt3Ej26kiS1-bgbfy2X-38" style="edgeStyle=none;rounded=0;orthogonalLoop=1;jettySize=auto;html=1;entryX=1;entryY=0.5;entryDx=0;entryDy=0;entryPerimeter=0;" parent="1" source="bbt3Ej26kiS1-bgbfy2X-37" target="bbt3Ej26kiS1-bgbfy2X-20" edge="1">
          <mxGeometry relative="1" as="geometry">
            <Array as="points">
              <mxPoint x="1240" y="1400" />
            </Array>
          </mxGeometry>
        </mxCell>
        <mxCell id="bbt3Ej26kiS1-bgbfy2X-71" style="edgeStyle=none;rounded=0;orthogonalLoop=1;jettySize=auto;html=1;" parent="1" source="bbt3Ej26kiS1-bgbfy2X-72" target="bbt3Ej26kiS1-bgbfy2X-74" edge="1">
          <mxGeometry relative="1" as="geometry">
            <mxPoint x="1570.0000000000005" y="760" as="targetPoint" />
          </mxGeometry>
        </mxCell>
        <mxCell id="bbt3Ej26kiS1-bgbfy2X-72" value="&lt;div&gt;Provider Details&lt;/div&gt;" style="rounded=1;whiteSpace=wrap;html=1;absoluteArcSize=1;arcSize=14;strokeWidth=2;" parent="1" vertex="1">
          <mxGeometry x="1520.0000000000005" y="610" width="100" height="100" as="geometry" />
        </mxCell>
        <mxCell id="bbt3Ej26kiS1-bgbfy2X-74" value="Enter Bank Details&lt;div&gt;Enter Sub Category&lt;/div&gt;" style="shape=parallelogram;html=1;strokeWidth=2;perimeter=parallelogramPerimeter;whiteSpace=wrap;rounded=1;arcSize=12;size=0.23;" parent="1" vertex="1">
          <mxGeometry x="1460" y="775" width="170" height="60" as="geometry" />
        </mxCell>
        <mxCell id="bbt3Ej26kiS1-bgbfy2X-75" style="edgeStyle=none;rounded=0;orthogonalLoop=1;jettySize=auto;html=1;endArrow=none;endFill=0;" parent="1" source="bbt3Ej26kiS1-bgbfy2X-76" edge="1">
          <mxGeometry relative="1" as="geometry">
            <mxPoint x="1050.0000000000005" y="1460" as="targetPoint" />
          </mxGeometry>
        </mxCell>
        <mxCell id="bbt3Ej26kiS1-bgbfy2X-76" value="Display User&amp;nbsp;&lt;div&gt;Details&lt;/div&gt;" style="shape=parallelogram;html=1;strokeWidth=2;perimeter=parallelogramPerimeter;whiteSpace=wrap;rounded=1;arcSize=12;size=0.23;" parent="1" vertex="1">
          <mxGeometry x="1500" y="925" width="130" height="60" as="geometry" />
        </mxCell>
        <mxCell id="bbt3Ej26kiS1-bgbfy2X-77" value="" style="endArrow=classic;html=1;rounded=0;entryX=0.855;entryY=0.855;entryDx=0;entryDy=0;entryPerimeter=0;" parent="1" target="bbt3Ej26kiS1-bgbfy2X-20" edge="1">
          <mxGeometry width="50" height="50" relative="1" as="geometry">
            <mxPoint x="1050" y="1460" as="sourcePoint" />
            <mxPoint x="970" y="1500" as="targetPoint" />
          </mxGeometry>
        </mxCell>
        <mxCell id="bbt3Ej26kiS1-bgbfy2X-84" style="edgeStyle=orthogonalEdgeStyle;curved=1;rounded=0;orthogonalLoop=1;jettySize=auto;html=1;exitX=1;exitY=1;exitDx=0;exitDy=0;entryX=-0.003;entryY=0.826;entryDx=0;entryDy=0;entryPerimeter=0;" parent="1" source="bbt3Ej26kiS1-bgbfy2X-30" target="bbt3Ej26kiS1-bgbfy2X-31" edge="1">
          <mxGeometry relative="1" as="geometry" />
        </mxCell>
        <mxCell id="bbt3Ej26kiS1-bgbfy2X-85" value="Completed" style="edgeLabel;html=1;align=center;verticalAlign=middle;resizable=0;points=[];" parent="bbt3Ej26kiS1-bgbfy2X-84" vertex="1" connectable="0">
          <mxGeometry x="0.0948" y="20" relative="1" as="geometry">
            <mxPoint as="offset" />
          </mxGeometry>
        </mxCell>
        <mxCell id="bbt3Ej26kiS1-bgbfy2X-88" style="edgeStyle=orthogonalEdgeStyle;rounded=0;orthogonalLoop=1;jettySize=auto;html=1;entryX=0.346;entryY=-0.083;entryDx=0;entryDy=0;entryPerimeter=0;" parent="1" source="bbt3Ej26kiS1-bgbfy2X-74" target="bbt3Ej26kiS1-bgbfy2X-76" edge="1">
          <mxGeometry relative="1" as="geometry" />
        </mxCell>
        <mxCell id="Yueu4RjpidxAxk6awRSq-2" value="Raise Support" style="whiteSpace=wrap;html=1;aspect=fixed;rounded=1;" parent="1" vertex="1">
          <mxGeometry x="920" y="710" width="80" height="80" as="geometry" />
        </mxCell>
        <mxCell id="Yueu4RjpidxAxk6awRSq-7" style="edgeStyle=orthogonalEdgeStyle;rounded=0;orthogonalLoop=1;jettySize=auto;html=1;entryX=0.058;entryY=0.395;entryDx=0;entryDy=0;entryPerimeter=0;" parent="1" source="bbt3Ej26kiS1-bgbfy2X-33" target="bbt3Ej26kiS1-bgbfy2X-31" edge="1">
          <mxGeometry relative="1" as="geometry" />
        </mxCell>
        <mxCell id="Yueu4RjpidxAxk6awRSq-8" value="Reject" style="edgeLabel;html=1;align=center;verticalAlign=middle;resizable=0;points=[];" parent="Yueu4RjpidxAxk6awRSq-7" vertex="1" connectable="0">
          <mxGeometry x="0.5116" y="1" relative="1" as="geometry">
            <mxPoint x="1" as="offset" />
          </mxGeometry>
        </mxCell>
        <mxCell id="Yueu4RjpidxAxk6awRSq-11" style="edgeStyle=orthogonalEdgeStyle;rounded=0;orthogonalLoop=1;jettySize=auto;html=1;entryX=0.855;entryY=0.145;entryDx=0;entryDy=0;entryPerimeter=0;" parent="1" source="Yueu4RjpidxAxk6awRSq-2" target="bbt3Ej26kiS1-bgbfy2X-20" edge="1">
          <mxGeometry relative="1" as="geometry">
            <Array as="points">
              <mxPoint x="960" y="1379" />
            </Array>
          </mxGeometry>
        </mxCell>
      </root>
    </mxGraphModel>
  </diagram>
</mxfile>
